<?xml version="1.0" encoding="UTF-8"?>
<!DOCTYPE svg PUBLIC "-//W3C//DTD SVG 1.1//EN" "http://www.w3.org/Graphics/SVG/1.1/DTD/svg11.dtd">
<!-- Creator: CorelDRAW 2021 (64 Bit) -->
<svg xmlns="http://www.w3.org/2000/svg" xml:space="preserve" width="100px" height="40px" version="1.1" style="shape-rendering:geometricPrecision; text-rendering:geometricPrecision; image-rendering:optimizeQuality; fill-rule:evenodd; clip-rule:evenodd"
viewBox="0 0 100 40"
 xmlns:xlink="http://www.w3.org/1999/xlink"
 xmlns:xodm="http://www.corel.com/coreldraw/odm/2003">
 <defs>
  <style type="text/css">
   <![CDATA[
    .fil1 {fill:#F20530}
    .fil2 {fill:#FEFEFE;fill-rule:nonzero}
    .fil0 {fill:#373435;fill-rule:nonzero}
   ]]>
  </style>
 </defs>
 <g id="Camada_x0020_1">
  <metadata id="CorelCorpID_0Corel-Layer"/>
  <path class="fil0" d="M34.7 30.22c0,0.2 -0.03,0.39 -0.09,0.55 -0.07,0.16 -0.16,0.29 -0.27,0.4 -0.12,0.11 -0.27,0.19 -0.44,0.25 -0.17,0.06 -0.37,0.09 -0.6,0.09l-0.29 0 0 1.17c0,0.02 -0.01,0.04 -0.02,0.05 -0.01,0.02 -0.03,0.03 -0.06,0.04 -0.03,0.01 -0.06,0.02 -0.11,0.02 -0.04,0.01 -0.1,0.01 -0.17,0.01 -0.07,0 -0.13,0 -0.17,-0.01 -0.05,0 -0.08,-0.01 -0.11,-0.02 -0.03,-0.01 -0.05,-0.02 -0.06,-0.04 -0.01,-0.01 -0.01,-0.03 -0.01,-0.05l0 -3.32c0,-0.09 0.02,-0.15 0.06,-0.2 0.05,-0.04 0.1,-0.07 0.18,-0.07l0.82 0c0.09,0 0.17,0.01 0.24,0.01 0.08,0.01 0.17,0.03 0.27,0.05 0.11,0.02 0.21,0.06 0.32,0.12 0.11,0.06 0.2,0.13 0.27,0.22 0.08,0.09 0.14,0.2 0.18,0.32 0.04,0.12 0.06,0.26 0.06,0.41zm-0.75 0.05c0,-0.13 -0.02,-0.24 -0.06,-0.32 -0.04,-0.08 -0.1,-0.15 -0.16,-0.19 -0.07,-0.04 -0.13,-0.06 -0.2,-0.07 -0.07,-0.01 -0.14,-0.02 -0.22,-0.02l-0.3 0 0 1.26 0.32 0c0.11,0 0.21,-0.02 0.28,-0.05 0.08,-0.03 0.15,-0.08 0.19,-0.14 0.05,-0.05 0.09,-0.12 0.12,-0.21 0.02,-0.08 0.03,-0.16 0.03,-0.26z"/>
  <path id="_1" class="fil0" d="M37.74 32.51c0.02,0.06 0.04,0.12 0.04,0.16 0.01,0.04 0,0.07 -0.02,0.09 -0.02,0.02 -0.05,0.03 -0.1,0.04 -0.05,0 -0.13,0 -0.21,0 -0.1,0 -0.17,0 -0.22,0 -0.05,0 -0.09,-0.01 -0.12,-0.02 -0.02,-0.01 -0.04,-0.02 -0.05,-0.03 -0.01,-0.02 -0.02,-0.04 -0.03,-0.06l-0.23 -0.75 -1.32 0 -0.22 0.73c-0.01,0.02 -0.02,0.05 -0.03,0.06 -0.01,0.02 -0.03,0.03 -0.06,0.05 -0.02,0.01 -0.06,0.01 -0.11,0.02 -0.05,0 -0.11,0 -0.19,0 -0.08,0 -0.15,0 -0.19,-0.01 -0.05,0 -0.08,-0.02 -0.1,-0.04 -0.02,-0.02 -0.02,-0.05 -0.02,-0.09 0.01,-0.04 0.02,-0.09 0.04,-0.16l1.08 -3.28c0.01,-0.03 0.02,-0.05 0.04,-0.07 0.01,-0.02 0.04,-0.04 0.07,-0.05 0.03,-0.01 0.07,-0.02 0.13,-0.02 0.06,0 0.13,0 0.22,0 0.11,0 0.19,0 0.26,0 0.06,0 0.11,0.01 0.14,0.02 0.04,0.01 0.06,0.03 0.08,0.05 0.01,0.02 0.03,0.05 0.04,0.08l1.08 3.28zm-1.61 -2.71l0 0 -0.49 1.57 0.99 0 -0.5 -1.57z"/>
  <path id="_2" class="fil0" d="M40.83 32.69c0,0.02 0,0.04 -0.01,0.05 0,0.02 -0.02,0.03 -0.05,0.04 -0.02,0.01 -0.06,0.01 -0.12,0.02 -0.05,0 -0.12,0 -0.21,0 -0.08,0 -0.14,0 -0.18,0 -0.05,-0.01 -0.08,-0.01 -0.11,-0.02 -0.02,-0.02 -0.04,-0.03 -0.05,-0.04 -0.01,-0.02 -0.02,-0.04 -0.03,-0.06l-0.32 -0.83c-0.03,-0.09 -0.07,-0.18 -0.11,-0.25 -0.03,-0.07 -0.07,-0.13 -0.12,-0.18 -0.04,-0.05 -0.1,-0.09 -0.15,-0.11 -0.06,-0.02 -0.13,-0.04 -0.2,-0.04l-0.23 0 0 1.41c0,0.02 0,0.04 -0.01,0.05 -0.02,0.02 -0.04,0.03 -0.06,0.04 -0.03,0.01 -0.07,0.02 -0.11,0.02 -0.05,0.01 -0.1,0.01 -0.17,0.01 -0.07,0 -0.13,0 -0.17,-0.01 -0.05,0 -0.09,-0.01 -0.11,-0.02 -0.03,-0.01 -0.05,-0.02 -0.06,-0.04 -0.01,-0.01 -0.02,-0.03 -0.02,-0.05l0 -3.35c0,-0.08 0.02,-0.14 0.06,-0.18 0.04,-0.04 0.09,-0.06 0.15,-0.06l0.91 0c0.09,0 0.17,0.01 0.23,0.01 0.06,0 0.11,0.01 0.16,0.01 0.14,0.03 0.27,0.06 0.38,0.11 0.12,0.05 0.21,0.12 0.29,0.2 0.08,0.09 0.14,0.18 0.18,0.3 0.04,0.11 0.06,0.24 0.06,0.39 0,0.12 -0.01,0.23 -0.04,0.33 -0.03,0.1 -0.08,0.2 -0.13,0.27 -0.06,0.08 -0.13,0.15 -0.22,0.21 -0.08,0.06 -0.18,0.11 -0.29,0.15 0.05,0.02 0.1,0.05 0.15,0.09 0.05,0.04 0.09,0.09 0.13,0.14 0.04,0.06 0.08,0.12 0.12,0.19 0.03,0.07 0.07,0.14 0.1,0.23l0.3 0.73c0.02,0.07 0.04,0.13 0.05,0.16 0.01,0.03 0.01,0.06 0.01,0.08zm-0.92 -2.51c0,-0.12 -0.02,-0.22 -0.07,-0.31 -0.06,-0.08 -0.14,-0.14 -0.26,-0.17 -0.04,-0.01 -0.08,-0.02 -0.13,-0.02 -0.04,-0.01 -0.11,-0.01 -0.19,-0.01l-0.32 0 0 1.04 0.37 0c0.1,0 0.19,-0.01 0.26,-0.04 0.08,-0.02 0.14,-0.06 0.19,-0.1 0.05,-0.05 0.09,-0.11 0.12,-0.17 0.02,-0.07 0.03,-0.14 0.03,-0.22z"/>
  <path id="_3" class="fil0" d="M43.63 29.4c0,0.06 0,0.1 0,0.14 -0.01,0.04 -0.02,0.07 -0.03,0.1 0,0.02 -0.02,0.04 -0.03,0.05 -0.01,0.01 -0.03,0.02 -0.04,0.02l-0.88 0 0 2.97c0,0.02 -0.01,0.04 -0.02,0.05 -0.01,0.02 -0.03,0.03 -0.06,0.04 -0.02,0.01 -0.06,0.02 -0.11,0.02 -0.04,0.01 -0.1,0.01 -0.17,0.01 -0.07,0 -0.12,0 -0.17,-0.01 -0.05,0 -0.08,-0.01 -0.11,-0.02 -0.03,-0.01 -0.05,-0.02 -0.06,-0.04 -0.01,-0.01 -0.02,-0.03 -0.02,-0.05l0 -2.97 -0.87 0c-0.02,0 -0.04,-0.01 -0.05,-0.02 -0.01,-0.01 -0.02,-0.03 -0.03,-0.05 -0.01,-0.03 -0.02,-0.06 -0.02,-0.1 -0.01,-0.04 -0.01,-0.08 -0.01,-0.14 0,-0.05 0,-0.1 0.01,-0.14 0,-0.04 0.01,-0.08 0.02,-0.1 0.01,-0.02 0.02,-0.04 0.03,-0.05 0.01,-0.01 0.03,-0.02 0.05,-0.02l2.47 0c0.01,0 0.03,0.01 0.04,0.02 0.01,0.01 0.03,0.03 0.03,0.05 0.01,0.02 0.02,0.06 0.03,0.1 0,0.04 0,0.09 0,0.14z"/>
  <path id="_4" class="fil0" d="M46.12 32.49c0,0.06 0,0.1 0,0.14 -0.01,0.04 -0.01,0.07 -0.02,0.09 -0.01,0.02 -0.02,0.04 -0.04,0.05 -0.01,0.01 -0.03,0.02 -0.04,0.02l-1.76 0c-0.06,0 -0.11,-0.02 -0.15,-0.06 -0.04,-0.04 -0.06,-0.1 -0.06,-0.18l0 -3.22c0,-0.08 0.02,-0.14 0.06,-0.18 0.04,-0.04 0.09,-0.06 0.15,-0.06l1.75 0c0.02,0 0.03,0.01 0.04,0.02 0.02,0.01 0.03,0.03 0.04,0.05 0,0.02 0.01,0.05 0.02,0.09 0,0.04 0,0.08 0,0.14 0,0.06 0,0.1 0,0.14 -0.01,0.04 -0.02,0.07 -0.02,0.09 -0.01,0.02 -0.02,0.04 -0.04,0.05 -0.01,0.01 -0.02,0.01 -0.04,0.01l-1.25 0 0 0.9 1.05 0c0.02,0 0.03,0.01 0.05,0.02 0.01,0.01 0.02,0.03 0.03,0.05 0.01,0.02 0.02,0.05 0.02,0.09 0.01,0.03 0.01,0.08 0.01,0.13 0,0.06 0,0.1 -0.01,0.14 0,0.03 -0.01,0.06 -0.02,0.08 -0.01,0.03 -0.02,0.04 -0.03,0.05 -0.02,0.01 -0.03,0.02 -0.05,0.02l-1.05 0 0 1.04 1.26 0c0.01,0 0.03,0 0.04,0.01 0.02,0.01 0.03,0.03 0.04,0.05 0.01,0.02 0.01,0.05 0.02,0.09 0,0.04 0,0.08 0,0.14z"/>
  <path id="_5" class="fil0" d="M50.92 30.89c0,0.33 -0.04,0.62 -0.12,0.86 -0.09,0.24 -0.21,0.44 -0.37,0.59 -0.15,0.16 -0.35,0.27 -0.57,0.34 -0.22,0.07 -0.49,0.11 -0.8,0.11l-0.84 0c-0.06,0 -0.11,-0.02 -0.15,-0.06 -0.04,-0.04 -0.06,-0.1 -0.06,-0.18l0 -3.22c0,-0.08 0.02,-0.14 0.06,-0.18 0.04,-0.04 0.09,-0.06 0.15,-0.06l0.9 0c0.31,0 0.58,0.04 0.79,0.12 0.22,0.08 0.41,0.19 0.55,0.34 0.15,0.15 0.27,0.34 0.34,0.56 0.08,0.23 0.12,0.48 0.12,0.78zm-0.74 0.02c0,-0.17 -0.02,-0.34 -0.06,-0.49 -0.03,-0.15 -0.1,-0.28 -0.18,-0.39 -0.09,-0.11 -0.2,-0.19 -0.33,-0.25 -0.14,-0.06 -0.31,-0.1 -0.53,-0.1l-0.36 0 0 2.51 0.37 0c0.19,0 0.36,-0.03 0.49,-0.08 0.14,-0.05 0.25,-0.13 0.34,-0.24 0.09,-0.11 0.15,-0.24 0.2,-0.4 0.04,-0.16 0.06,-0.35 0.06,-0.56z"/>
  <path id="_6" class="fil0" d="M53.58 32.49c0,0.06 0,0.1 -0.01,0.14 0,0.04 -0.01,0.07 -0.02,0.09 -0.01,0.02 -0.02,0.04 -0.03,0.05 -0.01,0.01 -0.03,0.02 -0.05,0.02l-1.75 0c-0.06,0 -0.11,-0.02 -0.15,-0.06 -0.04,-0.04 -0.07,-0.1 -0.07,-0.18l0 -3.22c0,-0.08 0.03,-0.14 0.07,-0.18 0.04,-0.04 0.09,-0.06 0.15,-0.06l1.75 0c0.01,0 0.03,0.01 0.04,0.02 0.01,0.01 0.02,0.03 0.03,0.05 0.01,0.02 0.02,0.05 0.02,0.09 0.01,0.04 0.01,0.08 0.01,0.14 0,0.06 0,0.1 -0.01,0.14 0,0.04 -0.01,0.07 -0.02,0.09 -0.01,0.02 -0.02,0.04 -0.03,0.05 -0.01,0.01 -0.03,0.01 -0.04,0.01l-1.25 0 0 0.9 1.05 0c0.02,0 0.03,0.01 0.04,0.02 0.02,0.01 0.03,0.03 0.04,0.05 0.01,0.02 0.01,0.05 0.02,0.09 0,0.03 0,0.08 0,0.13 0,0.06 0,0.1 0,0.14 -0.01,0.03 -0.01,0.06 -0.02,0.08 -0.01,0.03 -0.02,0.04 -0.04,0.05 -0.01,0.01 -0.02,0.02 -0.04,0.02l-1.05 0 0 1.04 1.25 0c0.02,0 0.04,0 0.05,0.01 0.01,0.01 0.02,0.03 0.03,0.05 0.01,0.02 0.02,0.05 0.02,0.09 0.01,0.04 0.01,0.08 0.01,0.14z"/>
  <path id="_7" class="fil0" d="M57.89 32.23c0,0.05 0,0.09 0,0.12 -0.01,0.03 -0.01,0.06 -0.02,0.08 0,0.03 -0.01,0.05 -0.02,0.07 -0.01,0.01 -0.02,0.03 -0.04,0.05 -0.02,0.03 -0.06,0.05 -0.12,0.09 -0.05,0.03 -0.12,0.06 -0.21,0.1 -0.08,0.03 -0.17,0.05 -0.28,0.07 -0.1,0.02 -0.22,0.03 -0.34,0.03 -0.24,0 -0.46,-0.04 -0.65,-0.11 -0.19,-0.08 -0.36,-0.2 -0.49,-0.35 -0.14,-0.16 -0.24,-0.35 -0.31,-0.58 -0.08,-0.23 -0.11,-0.5 -0.11,-0.81 0,-0.31 0.04,-0.59 0.12,-0.84 0.08,-0.24 0.19,-0.44 0.33,-0.61 0.14,-0.17 0.31,-0.29 0.51,-0.38 0.2,-0.08 0.42,-0.12 0.66,-0.12 0.1,0 0.19,0 0.28,0.02 0.09,0.02 0.18,0.04 0.25,0.07 0.08,0.03 0.15,0.06 0.21,0.09 0.06,0.04 0.11,0.07 0.13,0.1 0.02,0.02 0.04,0.05 0.05,0.06 0.01,0.02 0.02,0.04 0.02,0.07 0.01,0.02 0.01,0.06 0.01,0.09 0.01,0.04 0.01,0.08 0.01,0.14 0,0.05 0,0.1 -0.01,0.14 0,0.04 -0.01,0.07 -0.02,0.1 -0.01,0.02 -0.02,0.04 -0.03,0.05 -0.01,0.01 -0.03,0.02 -0.04,0.02 -0.03,0 -0.06,-0.02 -0.1,-0.05 -0.05,-0.03 -0.1,-0.07 -0.17,-0.11 -0.06,-0.04 -0.14,-0.08 -0.23,-0.11 -0.09,-0.04 -0.2,-0.05 -0.33,-0.05 -0.14,0 -0.26,0.03 -0.37,0.09 -0.11,0.06 -0.2,0.14 -0.28,0.25 -0.07,0.11 -0.13,0.25 -0.17,0.41 -0.04,0.15 -0.06,0.33 -0.06,0.53 0,0.21 0.02,0.4 0.06,0.56 0.05,0.16 0.11,0.29 0.18,0.39 0.08,0.1 0.18,0.18 0.29,0.23 0.11,0.05 0.23,0.08 0.37,0.08 0.13,0 0.24,-0.02 0.33,-0.05 0.09,-0.03 0.17,-0.07 0.24,-0.1 0.06,-0.04 0.12,-0.07 0.16,-0.1 0.04,-0.04 0.07,-0.05 0.1,-0.05 0.01,0 0.03,0 0.04,0.01 0.01,0.01 0.02,0.02 0.03,0.05 0,0.02 0.01,0.05 0.01,0.09 0.01,0.04 0.01,0.1 0.01,0.17z"/>
  <path id="_8" class="fil0" d="M59.12 32.68c0,0.02 -0.01,0.04 -0.02,0.05 -0.01,0.02 -0.03,0.03 -0.06,0.04 -0.03,0.01 -0.06,0.02 -0.11,0.02 -0.04,0.01 -0.1,0.01 -0.17,0.01 -0.07,0 -0.13,0 -0.17,-0.01 -0.05,0 -0.09,-0.01 -0.11,-0.02 -0.03,-0.01 -0.05,-0.02 -0.06,-0.04 -0.01,-0.01 -0.02,-0.03 -0.02,-0.05l0 -3.48c0,-0.02 0.01,-0.04 0.02,-0.06 0.01,-0.01 0.03,-0.02 0.06,-0.03 0.03,-0.01 0.06,-0.02 0.11,-0.02 0.04,-0.01 0.1,-0.01 0.17,-0.01 0.07,0 0.13,0 0.17,0.01 0.05,0 0.08,0.01 0.11,0.02 0.03,0.01 0.05,0.02 0.06,0.03 0.01,0.02 0.02,0.04 0.02,0.06l0 3.48z"/>
  <path id="_9" class="fil0" d="M63.96 32.68c0,0.02 0,0.04 -0.01,0.05 -0.01,0.02 -0.03,0.03 -0.06,0.04 -0.02,0.01 -0.06,0.02 -0.1,0.02 -0.04,0.01 -0.1,0.01 -0.17,0.01 -0.06,0 -0.12,0 -0.16,-0.01 -0.04,0 -0.08,-0.01 -0.1,-0.02 -0.03,-0.01 -0.05,-0.02 -0.06,-0.04 -0.01,-0.01 -0.01,-0.03 -0.01,-0.05l0 -3 -0.01 0 -1.01 3c-0.01,0.02 -0.02,0.04 -0.04,0.06 -0.01,0.02 -0.03,0.03 -0.06,0.04 -0.03,0.01 -0.07,0.02 -0.11,0.02 -0.04,0 -0.1,0 -0.16,0 -0.06,0 -0.11,0 -0.15,0 -0.05,-0.01 -0.08,-0.02 -0.11,-0.03 -0.03,-0.01 -0.05,-0.02 -0.07,-0.04 -0.01,-0.01 -0.02,-0.03 -0.03,-0.05l-0.98 -3 0 0 0 3c0,0.02 -0.01,0.04 -0.02,0.05 -0.01,0.02 -0.03,0.03 -0.05,0.04 -0.03,0.01 -0.07,0.02 -0.11,0.02 -0.04,0.01 -0.1,0.01 -0.16,0.01 -0.07,0 -0.12,0 -0.17,-0.01 -0.04,0 -0.07,-0.01 -0.1,-0.02 -0.03,-0.01 -0.04,-0.02 -0.05,-0.04 -0.02,-0.01 -0.02,-0.03 -0.02,-0.05l0 -3.29c0,-0.09 0.02,-0.17 0.07,-0.22 0.05,-0.05 0.12,-0.08 0.2,-0.08l0.47 0c0.08,0 0.15,0.01 0.21,0.03 0.06,0.01 0.11,0.03 0.16,0.07 0.04,0.03 0.07,0.07 0.1,0.13 0.03,0.05 0.06,0.12 0.08,0.2l0.75 2.2 0.02 0 0.78 -2.2c0.02,-0.08 0.05,-0.14 0.07,-0.2 0.03,-0.05 0.07,-0.1 0.1,-0.13 0.04,-0.04 0.08,-0.06 0.13,-0.07 0.05,-0.02 0.11,-0.03 0.18,-0.03l0.48 0c0.05,0 0.09,0.01 0.13,0.02 0.03,0.02 0.06,0.04 0.08,0.06 0.03,0.03 0.04,0.06 0.06,0.1 0.01,0.03 0.01,0.08 0.01,0.12l0 3.29z"/>
  <path id="_10" class="fil0" d="M67.6 32.51c0.02,0.06 0.03,0.12 0.04,0.16 0.01,0.04 0,0.07 -0.02,0.09 -0.02,0.02 -0.06,0.03 -0.11,0.04 -0.05,0 -0.12,0 -0.21,0 -0.09,0 -0.16,0 -0.21,0 -0.05,0 -0.09,-0.01 -0.12,-0.02 -0.03,-0.01 -0.04,-0.02 -0.06,-0.03 -0.01,-0.02 -0.02,-0.04 -0.02,-0.06l-0.23 -0.75 -1.32 0 -0.23 0.73c0,0.02 -0.01,0.05 -0.02,0.06 -0.02,0.02 -0.03,0.03 -0.06,0.05 -0.03,0.01 -0.06,0.01 -0.11,0.02 -0.05,0 -0.11,0 -0.19,0 -0.08,0 -0.15,0 -0.2,-0.01 -0.04,0 -0.07,-0.02 -0.09,-0.04 -0.02,-0.02 -0.03,-0.05 -0.02,-0.09 0,-0.04 0.02,-0.09 0.04,-0.16l1.08 -3.28c0.01,-0.03 0.02,-0.05 0.04,-0.07 0.01,-0.02 0.03,-0.04 0.06,-0.05 0.04,-0.01 0.08,-0.02 0.14,-0.02 0.05,0 0.13,0 0.22,0 0.11,0 0.19,0 0.25,0 0.07,0 0.12,0.01 0.15,0.02 0.04,0.01 0.06,0.03 0.08,0.05 0.01,0.02 0.03,0.05 0.04,0.08l1.08 3.28zm-1.61 -2.71l0 0 -0.49 1.57 0.98 0 -0.49 -1.57z"/>
  <path id="_11" class="fil0" d="M33.75 35.09c0,0.21 -0.03,0.39 -0.09,0.55 -0.06,0.16 -0.15,0.3 -0.27,0.41 -0.12,0.11 -0.26,0.19 -0.43,0.25 -0.17,0.05 -0.37,0.08 -0.61,0.08l-0.29 0 0 1.18c0,0.02 0,0.03 -0.02,0.05 -0.01,0.01 -0.03,0.03 -0.05,0.04 -0.03,0.01 -0.07,0.01 -0.11,0.02 -0.05,0 -0.11,0.01 -0.17,0.01 -0.07,0 -0.13,-0.01 -0.18,-0.01 -0.04,-0.01 -0.08,-0.01 -0.11,-0.02 -0.02,-0.01 -0.04,-0.03 -0.05,-0.04 -0.01,-0.02 -0.02,-0.03 -0.02,-0.05l0 -3.32c0,-0.09 0.02,-0.16 0.07,-0.2 0.04,-0.05 0.1,-0.07 0.17,-0.07l0.83 0c0.08,0 0.16,0 0.24,0.01 0.07,0.01 0.16,0.02 0.27,0.04 0.1,0.02 0.21,0.06 0.31,0.12 0.11,0.06 0.2,0.14 0.28,0.23 0.08,0.09 0.13,0.19 0.17,0.31 0.04,0.13 0.06,0.26 0.06,0.41zm-0.74 0.06c0,-0.13 -0.02,-0.24 -0.07,-0.32 -0.04,-0.09 -0.09,-0.15 -0.16,-0.19 -0.06,-0.04 -0.13,-0.07 -0.2,-0.08 -0.07,-0.01 -0.14,-0.01 -0.21,-0.01l-0.31 0 0 1.25 0.32 0c0.12,0 0.21,-0.01 0.29,-0.05 0.08,-0.03 0.14,-0.07 0.19,-0.13 0.05,-0.06 0.09,-0.13 0.11,-0.21 0.03,-0.08 0.04,-0.17 0.04,-0.26z"/>
  <path id="_12" class="fil0" d="M36.8 37.38c0.02,0.07 0.03,0.12 0.04,0.16 0,0.04 0,0.07 -0.02,0.09 -0.02,0.02 -0.06,0.04 -0.11,0.04 -0.05,0.01 -0.12,0.01 -0.21,0.01 -0.09,0 -0.16,0 -0.21,-0.01 -0.05,0 -0.09,0 -0.12,-0.01 -0.03,-0.01 -0.05,-0.02 -0.06,-0.04 -0.01,-0.01 -0.02,-0.03 -0.02,-0.06l-0.23 -0.74 -1.33 0 -0.22 0.72c0,0.03 -0.01,0.05 -0.03,0.07 -0.01,0.02 -0.03,0.03 -0.05,0.04 -0.03,0.01 -0.07,0.02 -0.11,0.02 -0.05,0.01 -0.11,0.01 -0.19,0.01 -0.08,0 -0.15,-0.01 -0.2,-0.01 -0.04,-0.01 -0.08,-0.02 -0.09,-0.04 -0.02,-0.02 -0.03,-0.06 -0.02,-0.1 0,-0.03 0.02,-0.09 0.04,-0.15l1.08 -3.28c0.01,-0.03 0.02,-0.06 0.04,-0.08 0.01,-0.02 0.03,-0.03 0.06,-0.04 0.04,-0.01 0.08,-0.02 0.14,-0.02 0.05,-0.01 0.12,-0.01 0.22,-0.01 0.1,0 0.19,0 0.25,0.01 0.07,0 0.11,0.01 0.15,0.02 0.03,0.01 0.06,0.02 0.08,0.04 0.01,0.02 0.02,0.05 0.03,0.09l1.09 3.27zm-1.61 -2.71l0 0 -0.49 1.57 0.98 0 -0.49 -1.57z"/>
  <path id="_13" class="fil0" d="M39.89 37.56c0,0.02 0,0.04 -0.01,0.06 -0.01,0.01 -0.02,0.02 -0.05,0.03 -0.03,0.01 -0.07,0.02 -0.12,0.02 -0.05,0.01 -0.12,0.01 -0.21,0.01 -0.08,0 -0.14,0 -0.19,-0.01 -0.04,0 -0.08,-0.01 -0.1,-0.02 -0.03,-0.01 -0.05,-0.02 -0.06,-0.04 -0.01,-0.02 -0.02,-0.04 -0.02,-0.06l-0.32 -0.82c-0.04,-0.1 -0.08,-0.18 -0.11,-0.25 -0.04,-0.08 -0.08,-0.14 -0.12,-0.19 -0.05,-0.04 -0.1,-0.08 -0.16,-0.11 -0.05,-0.02 -0.12,-0.03 -0.2,-0.03l-0.22 0 0 1.41c0,0.02 -0.01,0.03 -0.02,0.05 -0.01,0.01 -0.03,0.03 -0.06,0.04 -0.02,0.01 -0.06,0.01 -0.1,0.02 -0.05,0 -0.11,0.01 -0.18,0.01 -0.07,0 -0.12,-0.01 -0.17,-0.01 -0.05,-0.01 -0.08,-0.01 -0.11,-0.02 -0.02,-0.01 -0.04,-0.03 -0.05,-0.04 -0.02,-0.02 -0.02,-0.03 -0.02,-0.05l0 -3.35c0,-0.09 0.02,-0.15 0.06,-0.19 0.04,-0.03 0.09,-0.05 0.15,-0.05l0.91 0c0.09,0 0.17,0 0.23,0.01 0.05,0 0.11,0 0.16,0.01 0.14,0.02 0.27,0.06 0.38,0.11 0.11,0.05 0.21,0.12 0.29,0.2 0.07,0.08 0.13,0.18 0.18,0.29 0.04,0.11 0.06,0.24 0.06,0.39 0,0.12 -0.02,0.24 -0.05,0.34 -0.03,0.1 -0.07,0.19 -0.13,0.27 -0.06,0.08 -0.13,0.15 -0.21,0.21 -0.09,0.06 -0.18,0.1 -0.29,0.14 0.05,0.03 0.1,0.06 0.14,0.1 0.05,0.03 0.09,0.08 0.14,0.14 0.04,0.05 0.07,0.11 0.11,0.18 0.04,0.07 0.07,0.15 0.11,0.24l0.29 0.73c0.03,0.07 0.05,0.12 0.06,0.16 0.01,0.03 0.01,0.05 0.01,0.07zm-0.92 -2.5c0,-0.12 -0.03,-0.23 -0.08,-0.31 -0.05,-0.08 -0.14,-0.14 -0.26,-0.18 -0.03,-0.01 -0.07,-0.01 -0.12,-0.02 -0.05,-0.01 -0.11,-0.01 -0.19,-0.01l-0.32 0 0 1.05 0.36 0c0.1,0 0.19,-0.02 0.27,-0.04 0.07,-0.03 0.14,-0.06 0.19,-0.11 0.05,-0.05 0.09,-0.1 0.11,-0.17 0.03,-0.06 0.04,-0.13 0.04,-0.21z"/>
  <path id="_14" class="fil0" d="M42.69 34.28c0,0.05 0,0.1 -0.01,0.14 0,0.04 -0.01,0.07 -0.02,0.09 -0.01,0.03 -0.02,0.04 -0.03,0.06 -0.02,0.01 -0.03,0.01 -0.05,0.01l-0.87 0 0 2.98c0,0.02 -0.01,0.03 -0.02,0.05 -0.01,0.01 -0.03,0.03 -0.06,0.04 -0.03,0.01 -0.06,0.01 -0.11,0.02 -0.05,0 -0.1,0.01 -0.17,0.01 -0.07,0 -0.13,-0.01 -0.17,-0.01 -0.05,-0.01 -0.09,-0.01 -0.11,-0.02 -0.03,-0.01 -0.05,-0.03 -0.06,-0.04 -0.01,-0.02 -0.02,-0.03 -0.02,-0.05l0 -2.98 -0.88 0c-0.01,0 -0.03,0 -0.04,-0.01 -0.01,-0.02 -0.03,-0.03 -0.04,-0.06 0,-0.02 -0.01,-0.05 -0.02,-0.09 0,-0.04 0,-0.09 0,-0.14 0,-0.06 0,-0.11 0,-0.15 0.01,-0.04 0.02,-0.07 0.02,-0.09 0.01,-0.03 0.03,-0.04 0.04,-0.05 0.01,-0.02 0.03,-0.02 0.04,-0.02l2.47 0c0.02,0 0.03,0 0.05,0.02 0.01,0.01 0.02,0.02 0.03,0.05 0.01,0.02 0.02,0.05 0.02,0.09 0.01,0.04 0.01,0.09 0.01,0.15z"/>
  <path id="_15" class="fil0" d="M45.18 37.37c0,0.05 0,0.1 -0.01,0.13 0,0.04 -0.01,0.07 -0.02,0.09 -0.01,0.03 -0.02,0.04 -0.03,0.05 -0.01,0.02 -0.03,0.02 -0.05,0.02l-1.75 0c-0.06,0 -0.11,-0.02 -0.15,-0.05 -0.05,-0.04 -0.07,-0.1 -0.07,-0.19l0 -3.21c0,-0.09 0.02,-0.15 0.07,-0.19 0.04,-0.03 0.09,-0.05 0.15,-0.05l1.75 0c0.01,0 0.03,0 0.04,0.01 0.01,0.01 0.02,0.03 0.03,0.05 0.01,0.03 0.02,0.06 0.02,0.1 0.01,0.03 0.01,0.08 0.01,0.14 0,0.05 0,0.1 -0.01,0.13 0,0.04 -0.01,0.07 -0.02,0.09 -0.01,0.03 -0.02,0.04 -0.03,0.05 -0.01,0.01 -0.03,0.02 -0.04,0.02l-1.26 0 0 0.9 1.06 0c0.01,0 0.03,0 0.04,0.01 0.02,0.02 0.03,0.03 0.04,0.05 0.01,0.02 0.01,0.05 0.02,0.09 0,0.04 0,0.08 0,0.14 0,0.05 0,0.1 0,0.13 -0.01,0.04 -0.01,0.07 -0.02,0.09 -0.01,0.02 -0.02,0.04 -0.04,0.05 -0.01,0.01 -0.03,0.01 -0.04,0.01l-1.06 0 0 1.04 1.26 0c0.02,0 0.04,0.01 0.05,0.02 0.01,0.01 0.02,0.02 0.03,0.05 0.01,0.02 0.02,0.05 0.02,0.09 0.01,0.03 0.01,0.08 0.01,0.14z"/>
  <path id="_16" class="fil0" d="M49.98 35.76c0,0.34 -0.05,0.63 -0.13,0.87 -0.08,0.24 -0.2,0.44 -0.36,0.59 -0.16,0.15 -0.35,0.26 -0.57,0.33 -0.23,0.07 -0.5,0.11 -0.81,0.11l-0.83 0c-0.06,0 -0.11,-0.02 -0.15,-0.05 -0.05,-0.04 -0.07,-0.1 -0.07,-0.19l0 -3.21c0,-0.09 0.02,-0.15 0.07,-0.19 0.04,-0.03 0.09,-0.05 0.15,-0.05l0.89 0c0.32,0 0.58,0.04 0.8,0.12 0.22,0.07 0.4,0.19 0.55,0.34 0.15,0.15 0.26,0.34 0.34,0.56 0.08,0.22 0.12,0.48 0.12,0.77zm-0.74 0.03c0,-0.18 -0.02,-0.34 -0.06,-0.49 -0.04,-0.15 -0.1,-0.28 -0.19,-0.39 -0.08,-0.11 -0.19,-0.2 -0.33,-0.26 -0.13,-0.06 -0.31,-0.09 -0.53,-0.09l-0.36 0 0 2.5 0.37 0c0.2,0 0.36,-0.02 0.5,-0.08 0.13,-0.05 0.24,-0.13 0.33,-0.24 0.09,-0.1 0.16,-0.24 0.2,-0.4 0.05,-0.16 0.07,-0.34 0.07,-0.55z"/>
  <path id="_17" class="fil0" d="M52.64 37.37c0,0.05 -0.01,0.1 -0.01,0.13 -0.01,0.04 -0.01,0.07 -0.02,0.09 -0.01,0.03 -0.02,0.04 -0.04,0.05 -0.01,0.02 -0.02,0.02 -0.04,0.02l-1.76 0c-0.06,0 -0.11,-0.02 -0.15,-0.05 -0.04,-0.04 -0.06,-0.1 -0.06,-0.19l0 -3.21c0,-0.09 0.02,-0.15 0.06,-0.19 0.04,-0.03 0.09,-0.05 0.15,-0.05l1.75 0c0.02,0 0.03,0 0.05,0.01 0.01,0.01 0.02,0.03 0.03,0.05 0.01,0.03 0.01,0.06 0.02,0.1 0,0.03 0,0.08 0,0.14 0,0.05 0,0.1 0,0.13 -0.01,0.04 -0.01,0.07 -0.02,0.09 -0.01,0.03 -0.02,0.04 -0.03,0.05 -0.02,0.01 -0.03,0.02 -0.05,0.02l-1.25 0 0 0.9 1.05 0c0.02,0 0.04,0 0.05,0.01 0.01,0.02 0.02,0.03 0.03,0.05 0.01,0.02 0.02,0.05 0.02,0.09 0.01,0.04 0.01,0.08 0.01,0.14 0,0.05 0,0.1 -0.01,0.13 0,0.04 -0.01,0.07 -0.02,0.09 -0.01,0.02 -0.02,0.04 -0.03,0.05 -0.01,0.01 -0.03,0.01 -0.05,0.01l-1.05 0 0 1.04 1.26 0c0.02,0 0.03,0.01 0.04,0.02 0.02,0.01 0.03,0.02 0.04,0.05 0.01,0.02 0.01,0.05 0.02,0.09 0,0.03 0.01,0.08 0.01,0.14z"/>
  <path id="_18" class="fil0" d="M57.06 36.55c0,0.13 -0.02,0.25 -0.06,0.36 -0.03,0.11 -0.08,0.2 -0.14,0.28 -0.06,0.08 -0.13,0.15 -0.21,0.21 -0.09,0.06 -0.18,0.11 -0.28,0.15 -0.1,0.04 -0.21,0.07 -0.33,0.08 -0.11,0.02 -0.24,0.03 -0.38,0.03l-0.93 0c-0.06,0 -0.11,-0.02 -0.15,-0.05 -0.04,-0.04 -0.06,-0.1 -0.06,-0.19l0 -3.21c0,-0.09 0.02,-0.15 0.06,-0.19 0.04,-0.03 0.09,-0.05 0.15,-0.05l0.88 0c0.21,0 0.4,0.02 0.54,0.06 0.15,0.03 0.28,0.09 0.38,0.17 0.1,0.08 0.18,0.17 0.23,0.29 0.06,0.12 0.08,0.26 0.08,0.42 0,0.09 -0.01,0.17 -0.03,0.25 -0.02,0.08 -0.05,0.15 -0.09,0.21 -0.04,0.07 -0.09,0.13 -0.16,0.18 -0.06,0.05 -0.12,0.08 -0.2,0.12 0.1,0.01 0.19,0.05 0.27,0.1 0.09,0.04 0.16,0.1 0.22,0.18 0.07,0.07 0.11,0.16 0.15,0.26 0.04,0.1 0.06,0.22 0.06,0.34zm-0.93 -1.55c0,-0.08 -0.01,-0.14 -0.03,-0.2 -0.02,-0.06 -0.05,-0.11 -0.09,-0.15 -0.05,-0.04 -0.1,-0.07 -0.17,-0.09 -0.06,-0.02 -0.15,-0.03 -0.26,-0.03l-0.36 0 0 0.96 0.4 0c0.1,0 0.18,-0.01 0.24,-0.04 0.06,-0.03 0.11,-0.06 0.15,-0.11 0.05,-0.04 0.07,-0.09 0.1,-0.15 0.01,-0.06 0.02,-0.13 0.02,-0.19zm0.19 1.58c0,-0.09 -0.02,-0.16 -0.04,-0.23 -0.03,-0.07 -0.07,-0.12 -0.12,-0.17 -0.05,-0.05 -0.12,-0.08 -0.2,-0.11 -0.08,-0.02 -0.19,-0.03 -0.32,-0.03l-0.42 0 0 1.05 0.51 0c0.1,0 0.19,-0.01 0.25,-0.03 0.07,-0.03 0.13,-0.06 0.18,-0.1 0.05,-0.05 0.09,-0.1 0.12,-0.16 0.02,-0.07 0.04,-0.14 0.04,-0.22z"/>
  <path id="_19" class="fil0" d="M60.45 37.38c0.02,0.07 0.03,0.12 0.04,0.16 0,0.04 0,0.07 -0.02,0.09 -0.02,0.02 -0.06,0.04 -0.11,0.04 -0.05,0.01 -0.12,0.01 -0.21,0.01 -0.09,0 -0.16,0 -0.21,-0.01 -0.06,0 -0.09,0 -0.12,-0.01 -0.03,-0.01 -0.05,-0.02 -0.06,-0.04 -0.01,-0.01 -0.02,-0.03 -0.03,-0.06l-0.23 -0.74 -1.32 0 -0.22 0.72c-0.01,0.03 -0.02,0.05 -0.03,0.07 -0.01,0.02 -0.03,0.03 -0.05,0.04 -0.03,0.01 -0.07,0.02 -0.11,0.02 -0.05,0.01 -0.12,0.01 -0.19,0.01 -0.09,0 -0.15,-0.01 -0.2,-0.01 -0.05,-0.01 -0.08,-0.02 -0.1,-0.04 -0.01,-0.02 -0.02,-0.06 -0.01,-0.1 0,-0.03 0.01,-0.09 0.04,-0.15l1.08 -3.28c0.01,-0.03 0.02,-0.06 0.03,-0.08 0.02,-0.02 0.04,-0.03 0.07,-0.04 0.03,-0.01 0.08,-0.02 0.13,-0.02 0.06,-0.01 0.13,-0.01 0.23,-0.01 0.1,0 0.19,0 0.25,0.01 0.06,0 0.11,0.01 0.15,0.02 0.03,0.01 0.06,0.02 0.07,0.04 0.02,0.02 0.03,0.05 0.04,0.09l1.09 3.27zm-1.61 -2.71l0 0 -0.49 1.57 0.98 0 -0.49 -1.57z"/>
  <path id="_20" class="fil0" d="M61.65 37.56c0,0.02 0,0.03 -0.01,0.05 -0.02,0.01 -0.04,0.03 -0.06,0.04 -0.03,0.01 -0.07,0.01 -0.11,0.02 -0.05,0 -0.1,0.01 -0.17,0.01 -0.07,0 -0.13,-0.01 -0.18,-0.01 -0.04,-0.01 -0.08,-0.01 -0.11,-0.02 -0.02,-0.01 -0.04,-0.03 -0.05,-0.04 -0.02,-0.02 -0.02,-0.03 -0.02,-0.05l0 -3.49c0,-0.02 0,-0.03 0.02,-0.05 0.01,-0.01 0.03,-0.03 0.06,-0.04 0.02,-0.01 0.06,-0.01 0.1,-0.02 0.05,-0.01 0.11,-0.01 0.18,-0.01 0.07,0 0.12,0 0.17,0.01 0.04,0.01 0.08,0.01 0.11,0.02 0.02,0.01 0.04,0.03 0.06,0.04 0.01,0.02 0.01,0.03 0.01,0.05l0 3.49z"/>
  <path id="_21" class="fil0" d="M64.92 37.38c0.03,0.07 0.05,0.12 0.06,0.16 0.01,0.04 0,0.07 -0.02,0.09 -0.02,0.02 -0.06,0.03 -0.12,0.04 -0.05,0 -0.13,0.01 -0.23,0.01 -0.09,0 -0.15,0 -0.2,-0.01 -0.05,0 -0.09,-0.01 -0.12,-0.02 -0.02,-0.01 -0.04,-0.02 -0.06,-0.03 -0.01,-0.02 -0.02,-0.04 -0.03,-0.06l-0.66 -1.33 -0.65 1.33c-0.02,0.02 -0.03,0.04 -0.04,0.06 -0.01,0.01 -0.03,0.02 -0.06,0.03 -0.03,0.01 -0.07,0.02 -0.12,0.02 -0.05,0.01 -0.11,0.01 -0.19,0.01 -0.1,0 -0.17,-0.01 -0.22,-0.01 -0.05,-0.01 -0.09,-0.02 -0.11,-0.04 -0.02,-0.02 -0.02,-0.05 -0.01,-0.09 0.01,-0.04 0.03,-0.09 0.07,-0.16l0.84 -1.61 -0.78 -1.52c-0.04,-0.07 -0.06,-0.12 -0.07,-0.16 -0.01,-0.04 -0.01,-0.07 0.01,-0.09 0.02,-0.02 0.06,-0.04 0.12,-0.04 0.06,-0.01 0.14,-0.01 0.24,-0.01 0.08,0 0.15,0 0.2,0.01 0.05,0 0.09,0.01 0.12,0.02 0.03,0.01 0.05,0.02 0.06,0.03 0.01,0.02 0.02,0.04 0.03,0.06l0.62 1.22 0.6 -1.22c0.01,-0.02 0.02,-0.04 0.03,-0.06 0.01,-0.01 0.03,-0.02 0.06,-0.03 0.02,-0.01 0.06,-0.02 0.11,-0.02 0.04,-0.01 0.11,-0.01 0.19,-0.01 0.09,0 0.16,0 0.21,0.01 0.05,0 0.09,0.02 0.11,0.04 0.02,0.02 0.02,0.05 0.01,0.09 -0.01,0.04 -0.03,0.09 -0.06,0.16l-0.78 1.51 0.84 1.62z"/>
  <path id="_22" class="fil0" d="M68.43 35.77c0,0.31 -0.03,0.58 -0.1,0.82 -0.08,0.24 -0.18,0.45 -0.33,0.62 -0.14,0.17 -0.32,0.29 -0.53,0.38 -0.21,0.09 -0.45,0.13 -0.73,0.13 -0.27,0 -0.51,-0.03 -0.71,-0.11 -0.2,-0.07 -0.37,-0.19 -0.51,-0.34 -0.13,-0.16 -0.23,-0.35 -0.3,-0.59 -0.07,-0.24 -0.1,-0.52 -0.1,-0.84 0,-0.3 0.03,-0.57 0.1,-0.81 0.08,-0.24 0.18,-0.44 0.33,-0.61 0.14,-0.16 0.32,-0.29 0.53,-0.38 0.21,-0.09 0.45,-0.13 0.73,-0.13 0.26,0 0.5,0.03 0.7,0.11 0.2,0.07 0.37,0.18 0.51,0.34 0.14,0.15 0.24,0.35 0.31,0.58 0.07,0.24 0.1,0.51 0.1,0.83zm-0.74 0.04c0,-0.19 -0.02,-0.37 -0.05,-0.53 -0.03,-0.16 -0.08,-0.29 -0.15,-0.41 -0.06,-0.11 -0.16,-0.2 -0.27,-0.26 -0.12,-0.06 -0.26,-0.09 -0.44,-0.09 -0.17,0 -0.32,0.03 -0.43,0.1 -0.12,0.07 -0.22,0.16 -0.29,0.28 -0.07,0.12 -0.12,0.25 -0.15,0.41 -0.03,0.15 -0.04,0.32 -0.04,0.49 0,0.2 0.01,0.38 0.04,0.54 0.03,0.16 0.08,0.3 0.15,0.42 0.06,0.11 0.16,0.2 0.27,0.26 0.12,0.06 0.26,0.09 0.44,0.09 0.17,0 0.32,-0.04 0.43,-0.11 0.12,-0.07 0.22,-0.16 0.29,-0.28 0.07,-0.11 0.12,-0.25 0.15,-0.41 0.03,-0.16 0.05,-0.32 0.05,-0.5z"/>
  <g id="_3028362446688">
   <path class="fil1" d="M18.54 11.15l3.25 3.27 -3.25 3.28 -1.94 -1.96c-0.72,-0.72 -0.72,-1.91 0,-2.63l1.94 -1.96z"/>
   <path class="fil1" d="M80.48 2.58l-58.7 0c-1.78,0 -3.24,0.83 -3.24,1.86l0 19.97c0,1.02 1.46,1.86 3.24,1.86l58.7 0c1.79,0 3.25,-0.84 3.25,-1.86l0 -19.97c0,-1.03 -1.46,-1.86 -3.25,-1.86z"/>
  </g>
  <path class="fil2" d="M67.95 12.3c0,0.19 -0.01,0.35 -0.03,0.51 -0.01,0.15 -0.04,0.29 -0.08,0.42 -0.05,0.14 -0.1,0.27 -0.16,0.4 -0.06,0.12 -0.14,0.25 -0.24,0.39l-0.91 1.33c-0.03,0.05 -0.07,0.09 -0.1,0.12 -0.04,0.03 -0.09,0.06 -0.14,0.08 -0.06,0.01 -0.12,0.03 -0.2,0.04 -0.08,0.01 -0.18,0.02 -0.29,0.02 -0.13,0 -0.24,-0.01 -0.32,-0.02 -0.08,-0.01 -0.14,-0.03 -0.18,-0.05 -0.03,-0.02 -0.05,-0.06 -0.06,-0.09 0,-0.04 0.01,-0.08 0.03,-0.13l0.84 -1.92 0 -1.1c0,-0.16 0.02,-0.28 0.05,-0.38 0.04,-0.1 0.09,-0.17 0.17,-0.22 0.08,-0.05 0.17,-0.09 0.29,-0.1 0.12,-0.02 0.26,-0.03 0.43,-0.03 0.16,0 0.29,0.01 0.41,0.03 0.11,0.01 0.2,0.05 0.28,0.1 0.07,0.05 0.13,0.12 0.16,0.22 0.04,0.1 0.05,0.22 0.05,0.38z"/>
  <path id="_1_0" class="fil2" d="M74.64 12.88c0,0.13 -0.01,0.24 -0.02,0.33 -0.01,0.09 -0.03,0.16 -0.06,0.22 -0.02,0.05 -0.05,0.09 -0.08,0.11 -0.03,0.02 -0.07,0.04 -0.11,0.04l-4.85 0c-0.03,0 -0.07,-0.02 -0.1,-0.04 -0.03,-0.02 -0.06,-0.06 -0.08,-0.11 -0.03,-0.06 -0.05,-0.13 -0.06,-0.22 -0.01,-0.09 -0.02,-0.2 -0.02,-0.33 0,-0.13 0,-0.24 0.02,-0.33 0.01,-0.09 0.03,-0.17 0.05,-0.22 0.03,-0.06 0.05,-0.1 0.09,-0.12 0.03,-0.03 0.06,-0.04 0.1,-0.04l1.64 0 0 -5.84 -1.41 0.8c-0.1,0.05 -0.18,0.08 -0.25,0.09 -0.07,0.01 -0.12,0 -0.16,-0.04 -0.03,-0.04 -0.06,-0.11 -0.07,-0.21 -0.02,-0.09 -0.02,-0.23 -0.02,-0.41 0,-0.11 0,-0.2 0,-0.27 0.01,-0.07 0.02,-0.13 0.04,-0.18 0.01,-0.05 0.04,-0.1 0.07,-0.13 0.03,-0.03 0.08,-0.06 0.13,-0.1l1.88 -1.25c0.02,-0.02 0.05,-0.03 0.08,-0.05 0.04,-0.01 0.08,-0.02 0.14,-0.02 0.05,-0.01 0.12,-0.02 0.21,-0.02 0.09,0 0.2,0 0.34,0 0.17,0 0.31,0 0.42,0.01 0.11,0.01 0.19,0.02 0.24,0.03 0.05,0.02 0.09,0.04 0.11,0.07 0.02,0.03 0.03,0.06 0.03,0.1l0 7.42 1.43 0c0.04,0 0.08,0.01 0.11,0.04 0.04,0.02 0.06,0.06 0.09,0.12 0.03,0.05 0.04,0.13 0.06,0.22 0.01,0.09 0.01,0.2 0.01,0.33z"/>
  <path id="_2_1" class="fil2" d="M81.35 8.68c0,0.36 -0.02,0.74 -0.06,1.13 -0.03,0.39 -0.1,0.78 -0.21,1.15 -0.1,0.37 -0.24,0.73 -0.42,1.07 -0.17,0.33 -0.41,0.63 -0.69,0.88 -0.28,0.25 -0.62,0.45 -1.03,0.6 -0.4,0.15 -0.88,0.22 -1.43,0.22 -0.2,0 -0.39,-0.01 -0.58,-0.04 -0.19,-0.03 -0.37,-0.06 -0.53,-0.1 -0.15,-0.04 -0.29,-0.09 -0.4,-0.13 -0.11,-0.05 -0.19,-0.1 -0.24,-0.15 -0.05,-0.05 -0.09,-0.12 -0.11,-0.21 -0.02,-0.09 -0.03,-0.22 -0.03,-0.39 0,-0.15 0,-0.27 0.01,-0.36 0,-0.1 0.02,-0.17 0.04,-0.22 0.02,-0.05 0.04,-0.08 0.07,-0.1 0.03,-0.01 0.07,-0.02 0.11,-0.02 0.05,0 0.13,0.01 0.23,0.05 0.1,0.03 0.22,0.06 0.36,0.11 0.15,0.04 0.31,0.08 0.49,0.11 0.18,0.03 0.38,0.05 0.6,0.05 0.38,0 0.7,-0.07 0.97,-0.21 0.26,-0.14 0.47,-0.33 0.64,-0.57 0.16,-0.23 0.28,-0.51 0.36,-0.82 0.07,-0.31 0.12,-0.64 0.13,-0.98 -0.21,0.14 -0.46,0.25 -0.76,0.35 -0.29,0.1 -0.63,0.15 -1.01,0.15 -0.46,0 -0.86,-0.06 -1.18,-0.19 -0.33,-0.12 -0.6,-0.3 -0.8,-0.54 -0.2,-0.23 -0.35,-0.52 -0.44,-0.86 -0.1,-0.33 -0.14,-0.71 -0.14,-1.14 0,-0.45 0.06,-0.86 0.19,-1.24 0.14,-0.37 0.33,-0.7 0.59,-0.97 0.25,-0.28 0.58,-0.49 0.96,-0.64 0.38,-0.15 0.83,-0.23 1.33,-0.23 0.41,0 0.77,0.05 1.07,0.14 0.3,0.1 0.56,0.24 0.78,0.42 0.22,0.18 0.41,0.4 0.55,0.66 0.15,0.25 0.27,0.54 0.35,0.85 0.08,0.32 0.14,0.66 0.17,1.02 0.04,0.37 0.06,0.75 0.06,1.15zm-1.77 -0.26c0,-0.49 -0.02,-0.91 -0.08,-1.24 -0.05,-0.33 -0.13,-0.59 -0.24,-0.79 -0.11,-0.2 -0.25,-0.34 -0.41,-0.42 -0.16,-0.08 -0.35,-0.12 -0.57,-0.12 -0.21,0 -0.39,0.03 -0.55,0.11 -0.15,0.08 -0.28,0.18 -0.38,0.32 -0.1,0.14 -0.18,0.3 -0.23,0.49 -0.05,0.19 -0.07,0.4 -0.07,0.62 0,0.24 0.02,0.46 0.06,0.64 0.04,0.19 0.11,0.35 0.2,0.47 0.1,0.12 0.22,0.21 0.37,0.27 0.15,0.06 0.33,0.09 0.54,0.09 0.26,0 0.51,-0.04 0.74,-0.12 0.24,-0.08 0.44,-0.19 0.62,-0.32z"/>
  <path class="fil2" d="M33.83 13.7c0,0.8 -0.04,1.62 -0.12,2.48 -0.08,0.85 -0.23,1.69 -0.45,2.51 -0.22,0.82 -0.53,1.59 -0.92,2.33 -0.39,0.74 -0.9,1.39 -1.51,1.93 -0.62,0.55 -1.37,0.99 -2.26,1.31 -0.88,0.33 -1.92,0.49 -3.13,0.49 -0.42,0 -0.84,-0.03 -1.27,-0.09 -0.42,-0.06 -0.79,-0.14 -1.14,-0.23 -0.35,-0.09 -0.64,-0.19 -0.88,-0.29 -0.24,-0.1 -0.42,-0.2 -0.53,-0.31 -0.11,-0.1 -0.19,-0.26 -0.24,-0.46 -0.05,-0.2 -0.07,-0.48 -0.07,-0.85 0,-0.33 0,-0.6 0.02,-0.8 0.01,-0.2 0.04,-0.36 0.09,-0.47 0.05,-0.11 0.1,-0.19 0.16,-0.22 0.07,-0.03 0.14,-0.05 0.23,-0.05 0.12,0 0.29,0.03 0.51,0.11 0.22,0.06 0.48,0.15 0.79,0.24 0.32,0.09 0.67,0.17 1.06,0.24 0.4,0.07 0.84,0.11 1.33,0.11 0.83,0 1.53,-0.15 2.1,-0.46 0.58,-0.31 1.04,-0.71 1.4,-1.23 0.36,-0.52 0.62,-1.12 0.79,-1.8 0.16,-0.68 0.26,-1.39 0.28,-2.14 -0.45,0.29 -1.01,0.55 -1.65,0.77 -0.64,0.21 -1.38,0.32 -2.2,0.32 -1.03,0 -1.89,-0.13 -2.6,-0.41 -0.71,-0.27 -1.29,-0.67 -1.74,-1.18 -0.44,-0.52 -0.76,-1.14 -0.96,-1.88 -0.21,-0.73 -0.31,-1.56 -0.31,-2.49 0,-0.98 0.14,-1.89 0.43,-2.71 0.29,-0.82 0.71,-1.53 1.27,-2.13 0.57,-0.6 1.27,-1.07 2.11,-1.4 0.84,-0.33 1.81,-0.5 2.91,-0.5 0.89,0 1.67,0.1 2.33,0.32 0.67,0.21 1.24,0.51 1.72,0.91 0.48,0.39 0.88,0.87 1.2,1.43 0.32,0.56 0.57,1.19 0.75,1.87 0.19,0.69 0.31,1.43 0.39,2.23 0.07,0.8 0.11,1.63 0.11,2.5zm-3.85 -0.56c0,-1.08 -0.06,-1.98 -0.18,-2.7 -0.12,-0.73 -0.3,-1.31 -0.53,-1.74 -0.24,-0.42 -0.54,-0.74 -0.89,-0.92 -0.36,-0.18 -0.78,-0.27 -1.25,-0.27 -0.47,0 -0.86,0.09 -1.2,0.25 -0.34,0.17 -0.61,0.4 -0.84,0.7 -0.22,0.31 -0.39,0.66 -0.5,1.07 -0.1,0.42 -0.16,0.87 -0.16,1.36 0,0.53 0.05,1 0.14,1.41 0.09,0.41 0.25,0.74 0.45,1.01 0.2,0.27 0.46,0.46 0.79,0.59 0.33,0.13 0.72,0.2 1.19,0.2 0.57,0 1.11,-0.09 1.62,-0.27 0.51,-0.17 0.96,-0.4 1.36,-0.69z"/>
  <path id="_1_2" class="fil2" d="M48.27 13.7c0,0.8 -0.04,1.62 -0.12,2.48 -0.08,0.85 -0.23,1.69 -0.45,2.51 -0.22,0.82 -0.53,1.59 -0.92,2.33 -0.39,0.74 -0.89,1.39 -1.51,1.93 -0.62,0.55 -1.37,0.99 -2.25,1.31 -0.89,0.33 -1.93,0.49 -3.14,0.49 -0.42,0 -0.84,-0.03 -1.27,-0.09 -0.41,-0.06 -0.79,-0.14 -1.14,-0.23 -0.35,-0.09 -0.64,-0.19 -0.88,-0.29 -0.24,-0.1 -0.42,-0.2 -0.53,-0.31 -0.11,-0.1 -0.19,-0.26 -0.23,-0.46 -0.05,-0.2 -0.08,-0.48 -0.08,-0.85 0,-0.33 0,-0.6 0.02,-0.8 0.02,-0.2 0.05,-0.36 0.09,-0.47 0.05,-0.11 0.1,-0.19 0.16,-0.22 0.07,-0.03 0.14,-0.05 0.23,-0.05 0.12,0 0.29,0.03 0.51,0.11 0.22,0.06 0.48,0.15 0.79,0.24 0.32,0.09 0.67,0.17 1.06,0.24 0.4,0.07 0.84,0.11 1.33,0.11 0.83,0 1.53,-0.15 2.11,-0.46 0.57,-0.31 1.03,-0.71 1.39,-1.23 0.36,-0.52 0.62,-1.12 0.79,-1.8 0.16,-0.68 0.26,-1.39 0.28,-2.14 -0.45,0.29 -1,0.55 -1.65,0.77 -0.64,0.21 -1.38,0.32 -2.2,0.32 -1.02,0 -1.89,-0.13 -2.6,-0.41 -0.71,-0.27 -1.29,-0.67 -1.73,-1.18 -0.45,-0.52 -0.77,-1.14 -0.97,-1.88 -0.21,-0.73 -0.31,-1.56 -0.31,-2.49 0,-0.98 0.14,-1.89 0.43,-2.71 0.29,-0.82 0.71,-1.53 1.28,-2.13 0.56,-0.6 1.26,-1.07 2.1,-1.4 0.84,-0.33 1.81,-0.5 2.91,-0.5 0.89,0 1.67,0.1 2.33,0.32 0.67,0.21 1.24,0.51 1.72,0.91 0.48,0.39 0.88,0.87 1.2,1.43 0.32,0.56 0.57,1.19 0.75,1.87 0.19,0.69 0.31,1.43 0.39,2.23 0.07,0.8 0.11,1.63 0.11,2.5zm-3.85 -0.56c0,-1.08 -0.06,-1.98 -0.18,-2.7 -0.12,-0.73 -0.29,-1.31 -0.53,-1.74 -0.24,-0.42 -0.54,-0.74 -0.89,-0.92 -0.36,-0.18 -0.77,-0.27 -1.25,-0.27 -0.46,0 -0.86,0.09 -1.2,0.25 -0.34,0.17 -0.61,0.4 -0.84,0.7 -0.22,0.31 -0.38,0.66 -0.5,1.07 -0.1,0.42 -0.16,0.87 -0.16,1.36 0,0.53 0.05,1 0.14,1.41 0.09,0.41 0.25,0.74 0.45,1.01 0.2,0.27 0.46,0.46 0.79,0.59 0.33,0.13 0.72,0.2 1.19,0.2 0.57,0 1.12,-0.09 1.62,-0.27 0.51,-0.17 0.97,-0.4 1.36,-0.69z"/>
  <path id="_2_3" class="fil2" d="M62.71 13.7c0,0.8 -0.04,1.62 -0.12,2.48 -0.08,0.85 -0.23,1.69 -0.45,2.51 -0.22,0.82 -0.53,1.59 -0.92,2.33 -0.39,0.74 -0.89,1.39 -1.51,1.93 -0.62,0.55 -1.37,0.99 -2.25,1.31 -0.89,0.33 -1.93,0.49 -3.14,0.49 -0.42,0 -0.84,-0.03 -1.26,-0.09 -0.42,-0.06 -0.8,-0.14 -1.15,-0.23 -0.34,-0.09 -0.64,-0.19 -0.88,-0.29 -0.24,-0.1 -0.42,-0.2 -0.53,-0.31 -0.11,-0.1 -0.19,-0.26 -0.23,-0.46 -0.05,-0.2 -0.08,-0.48 -0.08,-0.85 0,-0.33 0.01,-0.6 0.02,-0.8 0.02,-0.2 0.05,-0.36 0.09,-0.47 0.05,-0.11 0.1,-0.19 0.16,-0.22 0.07,-0.03 0.15,-0.05 0.24,-0.05 0.11,0 0.28,0.03 0.5,0.11 0.22,0.06 0.48,0.15 0.79,0.24 0.32,0.09 0.67,0.17 1.07,0.24 0.39,0.07 0.83,0.11 1.32,0.11 0.83,0 1.53,-0.15 2.11,-0.46 0.57,-0.31 1.03,-0.71 1.39,-1.23 0.36,-0.52 0.62,-1.12 0.79,-1.8 0.17,-0.68 0.26,-1.39 0.28,-2.14 -0.45,0.29 -1,0.55 -1.65,0.77 -0.64,0.21 -1.37,0.32 -2.2,0.32 -1.02,0 -1.89,-0.13 -2.6,-0.41 -0.71,-0.27 -1.29,-0.67 -1.73,-1.18 -0.45,-0.52 -0.77,-1.14 -0.97,-1.88 -0.21,-0.73 -0.31,-1.56 -0.31,-2.49 0,-0.98 0.14,-1.89 0.43,-2.71 0.29,-0.82 0.72,-1.53 1.28,-2.13 0.56,-0.6 1.26,-1.07 2.1,-1.4 0.84,-0.33 1.81,-0.5 2.91,-0.5 0.89,0 1.67,0.1 2.33,0.32 0.67,0.21 1.24,0.51 1.72,0.91 0.48,0.39 0.88,0.87 1.2,1.43 0.32,0.56 0.57,1.19 0.76,1.87 0.18,0.69 0.3,1.43 0.38,2.23 0.08,0.8 0.11,1.63 0.11,2.5zm-3.85 -0.56c0,-1.08 -0.06,-1.98 -0.18,-2.7 -0.12,-0.73 -0.29,-1.31 -0.53,-1.74 -0.24,-0.42 -0.54,-0.74 -0.89,-0.92 -0.35,-0.18 -0.77,-0.27 -1.25,-0.27 -0.46,0 -0.86,0.09 -1.2,0.25 -0.33,0.17 -0.61,0.4 -0.83,0.7 -0.23,0.31 -0.39,0.66 -0.51,1.07 -0.1,0.42 -0.16,0.87 -0.16,1.36 0,0.53 0.05,1 0.14,1.41 0.1,0.41 0.25,0.74 0.45,1.01 0.2,0.27 0.46,0.46 0.79,0.59 0.33,0.13 0.73,0.2 1.19,0.2 0.57,0 1.12,-0.09 1.62,-0.27 0.51,-0.17 0.97,-0.4 1.36,-0.69z"/>
 </g>
</svg>
