<?xml version="1.0" encoding="UTF-8" standalone="no"?>
<!DOCTYPE svg PUBLIC "-//W3C//DTD SVG 1.1//EN" "http://www.w3.org/Graphics/SVG/1.1/DTD/svg11.dtd"><svg width="100%"
    height="100%" viewBox="0 0 100 40" version="1.1" xmlns="http://www.w3.org/2000/svg"
    xmlns:xlink="http://www.w3.org/1999/xlink" xml:space="preserve" xmlns:serif="http://www.serif.com/"
    style="fill-rule:evenodd;clip-rule:evenodd;stroke-linejoin:round;stroke-miterlimit:2;">
    <g id="Camada_x0020_1">
        <g id="_3028296454752">
            <path d="M32.35,11.15L35.6,14.42L32.35,17.7L30.41,15.74C29.69,15.02 29.69,13.83 30.41,13.11L32.35,11.15Z"
                style="fill:#f20530;" />
            <path
                d="M65.64,2.58L34.1,2.58C33.14,2.58 32.35,3.41 32.35,4.44L32.35,24.41C32.35,25.43 33.14,26.27 34.1,26.27L65.64,26.27C66.6,26.27 67.38,25.43 67.38,24.41L67.38,4.44C67.38,3.41 66.6,2.58 65.64,2.58Z"
                style="fill:#f20530;" />
        </g>
        <g transform="matrix(2.58786,0,0,2.58786,1.65627,-13.1622)"><text x="11.909px" y="14.519px"
                style="font-family:'Calibri-Bold', 'Calibri', sans-serif;font-weight:700;font-size:12px;fill:#fff;">2</text>
        </g>
        <g transform="matrix(0.486126,0,0,0.486126,36.4424,25.725)">
            <text x="-11.168px" y="14.519px"
                style="font-family:'Calibri-Bold', 'Calibri', sans-serif;font-weight:700;font-size:12px;fill:#373435;">
                P
                <tspan x="-5.596px 1.675px 8.314px 14.255px " y="14.519px 14.519px 14.519px 14.519px ">ARTE</tspan> DE
                CIMA
            </text>
        </g>
        <g transform="matrix(0.486126,0,0,0.486126,36.5216,30.61)"><text x="-13.21px" y="14.519px"
                style="font-family:'Calibri-Bold', 'Calibri', sans-serif;font-weight:700;font-size:12px;fill:#373435;">P
                <tspan x="-7.638px -0.367px 6.272px 12.213px " y="14.519px 14.519px 14.519px 14.519px ">ARTE</tspan> DE
                B<tspan x="43.52px 50.792px 53.991px 60.19px " y="14.519px 14.519px 14.519px 14.519px ">AIXO</tspan>
            </text></g>
        <g transform="matrix(1.18067,0,0,1.18067,34.8871,-3.49074)"><text x="11.909px" y="14.519px"
                style="font-family:'Calibri-Bold', 'Calibri', sans-serif;font-weight:700;font-size:12px;fill:#fff;">,19</text>
        </g>
    </g>
</svg>