<?xml version="1.0" encoding="UTF-8"?>
<!DOCTYPE svg PUBLIC "-//W3C//DTD SVG 1.1//EN" "http://www.w3.org/Graphics/SVG/1.1/DTD/svg11.dtd">
<!-- Creator: CorelDRAW 2021 (64 Bit) -->
<svg xmlns="http://www.w3.org/2000/svg" xml:space="preserve" width="357px" height="236px" version="1.1" style="shape-rendering:geometricPrecision; text-rendering:geometricPrecision; image-rendering:optimizeQuality; fill-rule:evenodd; clip-rule:evenodd"
viewBox="0 0 453.17 300.08"
 xmlns:xlink="http://www.w3.org/1999/xlink"
 xmlns:xodm="http://www.corel.com/coreldraw/odm/2003">
 <defs>
  <style type="text/css">
   <![CDATA[
    .fil0 {fill:#F20530}
    .fil1 {fill:black;fill-rule:nonzero}
    .fil2 {fill:#FEFEFE;fill-rule:nonzero}
   ]]>
  </style>
 </defs>
 <g id="Camada_x0020_1">
  <metadata id="CorelCorpID_0Corel-Layer"/>
  <g id="Camada_x0020_1_0">
   <path class="fil0" d="M432.06 0.03l-382.56 0c-11.61,0 -21.11,6.9 -21.11,15.32l0 55.31 -22.22 16.12c-8.23,5.95 -8.23,15.71 0,21.66l22.22 16.09 0 55.3c0,8.42 9.5,15.32 21.11,15.32l382.56 0c11.61,0 21.11,-6.9 21.11,-15.32l0 -164.51c0,-8.42 -9.5,-15.32 -21.11,-15.32l0 0.03z"/>
   <path class="fil1" d="M95.95 227.66c0,1.67 -0.26,3.14 -0.78,4.42 -0.52,1.28 -1.28,2.36 -2.27,3.23 -0.99,0.88 -2.21,1.55 -3.65,2.01 -1.45,0.46 -3.15,0.68 -5.1,0.68l-2.48 0 0 9.43c0,0.16 -0.04,0.29 -0.15,0.42 -0.1,0.11 -0.26,0.21 -0.49,0.29 -0.22,0.08 -0.53,0.14 -0.91,0.18 -0.37,0.05 -0.86,0.07 -1.45,0.07 -0.58,0 -1.06,-0.02 -1.45,-0.07 -0.39,-0.04 -0.69,-0.11 -0.92,-0.18 -0.23,-0.08 -0.39,-0.18 -0.48,-0.29 -0.09,-0.13 -0.14,-0.27 -0.14,-0.42l0 -26.6c0,-0.72 0.19,-1.25 0.56,-1.61 0.38,-0.36 0.87,-0.54 1.48,-0.54l6.97 0c0.7,0 1.37,0.02 2.01,0.08 0.63,0.05 1.38,0.17 2.27,0.34 0.88,0.18 1.78,0.5 2.69,0.97 0.9,0.47 1.68,1.07 2.32,1.8 0.64,0.72 1.13,1.57 1.47,2.54 0.33,0.97 0.5,2.05 0.5,3.25zm-6.27 0.44c0,-1.04 -0.19,-1.9 -0.56,-2.57 -0.36,-0.67 -0.82,-1.17 -1.36,-1.49 -0.53,-0.32 -1.09,-0.52 -1.68,-0.6 -0.59,-0.09 -1.2,-0.13 -1.83,-0.13l-2.58 0 0 10.06 2.72 0c0.97,0 1.77,-0.13 2.42,-0.39 0.65,-0.26 1.19,-0.62 1.6,-1.09 0.42,-0.46 0.73,-1.02 0.94,-1.67 0.22,-0.65 0.33,-1.36 0.33,-2.12z"/>
   <path id="_1" class="fil1" d="M124.8 246.01c0.18,0.55 0.3,0.99 0.35,1.31 0.04,0.32 -0.02,0.56 -0.18,0.72 -0.18,0.16 -0.47,0.26 -0.9,0.3 -0.42,0.04 -1.01,0.05 -1.76,0.05 -0.78,0 -1.38,-0.01 -1.81,-0.03 -0.44,-0.02 -0.77,-0.07 -1,-0.14 -0.23,-0.07 -0.38,-0.16 -0.48,-0.29 -0.09,-0.11 -0.17,-0.28 -0.22,-0.47l-1.94 -5.95 -11.16 0 -1.86 5.78c-0.06,0.22 -0.14,0.4 -0.24,0.54 -0.1,0.15 -0.26,0.26 -0.48,0.34 -0.22,0.09 -0.53,0.15 -0.94,0.18 -0.4,0.03 -0.93,0.04 -1.59,0.04 -0.7,0 -1.24,-0.02 -1.64,-0.07 -0.4,-0.04 -0.67,-0.15 -0.82,-0.33 -0.16,-0.17 -0.21,-0.42 -0.16,-0.74 0.04,-0.32 0.16,-0.74 0.34,-1.28l9.11 -26.25c0.08,-0.25 0.19,-0.46 0.32,-0.62 0.11,-0.17 0.31,-0.28 0.57,-0.37 0.28,-0.08 0.64,-0.14 1.12,-0.16 0.47,-0.02 1.09,-0.03 1.87,-0.03 0.9,0 1.62,0.01 2.15,0.03 0.53,0.02 0.95,0.08 1.24,0.16 0.3,0.09 0.51,0.21 0.64,0.38 0.13,0.17 0.25,0.39 0.33,0.68l9.14 26.22zm-13.57 -21.71l-0.02 0 -4.12 12.58 8.3 0 -4.16 -12.58z"/>
   <path id="_2" class="fil1" d="M150.89 247.48c0,0.16 -0.03,0.3 -0.09,0.42 -0.07,0.12 -0.21,0.21 -0.43,0.29 -0.24,0.07 -0.56,0.13 -1.01,0.16 -0.44,0.03 -1.04,0.04 -1.8,0.04 -0.64,0 -1.15,-0.01 -1.53,-0.04 -0.38,-0.03 -0.69,-0.09 -0.9,-0.18 -0.22,-0.08 -0.38,-0.18 -0.47,-0.32 -0.09,-0.13 -0.17,-0.28 -0.23,-0.46l-2.67 -6.62c-0.31,-0.75 -0.63,-1.42 -0.93,-2 -0.3,-0.59 -0.65,-1.07 -1.02,-1.46 -0.38,-0.39 -0.81,-0.68 -1.3,-0.88 -0.49,-0.2 -1.06,-0.3 -1.7,-0.3l-1.88 0 0 11.3c0,0.15 -0.04,0.29 -0.15,0.41 -0.1,0.12 -0.26,0.22 -0.49,0.3 -0.22,0.07 -0.53,0.14 -0.91,0.18 -0.37,0.05 -0.86,0.07 -1.45,0.07 -0.58,0 -1.06,-0.02 -1.45,-0.07 -0.39,-0.04 -0.69,-0.11 -0.92,-0.18 -0.23,-0.08 -0.39,-0.18 -0.48,-0.29 -0.09,-0.13 -0.14,-0.27 -0.14,-0.42l0 -26.86c0,-0.67 0.18,-1.15 0.52,-1.45 0.34,-0.29 0.76,-0.44 1.26,-0.44l7.66 0c0.77,0 1.42,0.01 1.92,0.05 0.5,0.03 0.96,0.07 1.37,0.1 1.19,0.18 2.26,0.46 3.21,0.88 0.95,0.4 1.76,0.94 2.42,1.6 0.67,0.67 1.17,1.45 1.52,2.35 0.36,0.91 0.53,1.94 0.53,3.12 0,0.98 -0.13,1.89 -0.38,2.7 -0.25,0.82 -0.62,1.54 -1.11,2.18 -0.49,0.64 -1.09,1.2 -1.8,1.67 -0.72,0.47 -1.54,0.85 -2.45,1.14 0.44,0.21 0.85,0.47 1.24,0.77 0.39,0.31 0.76,0.68 1.1,1.12 0.35,0.44 0.67,0.93 0.98,1.49 0.3,0.55 0.6,1.18 0.89,1.89l2.5 5.84c0.23,0.57 0.38,0.99 0.45,1.27 0.08,0.26 0.12,0.47 0.12,0.63zm-7.77 -20.08c0,-0.98 -0.22,-1.8 -0.66,-2.47 -0.44,-0.67 -1.17,-1.14 -2.18,-1.42 -0.3,-0.07 -0.64,-0.13 -1.03,-0.18 -0.39,-0.04 -0.93,-0.07 -1.62,-0.07l-2.7 0 0 8.38 3.07 0c0.86,0 1.6,-0.1 2.24,-0.31 0.64,-0.2 1.17,-0.49 1.6,-0.87 0.43,-0.36 0.75,-0.82 0.96,-1.33 0.21,-0.52 0.32,-1.09 0.32,-1.73z"/>
   <path id="_3" class="fil1" d="M174.94 221.14c0,0.45 -0.01,0.82 -0.05,1.14 -0.04,0.31 -0.1,0.56 -0.17,0.75 -0.08,0.2 -0.18,0.33 -0.29,0.42 -0.11,0.09 -0.24,0.14 -0.38,0.14l-7.39 0 0 23.84c0,0.15 -0.05,0.29 -0.15,0.42 -0.1,0.11 -0.26,0.21 -0.49,0.29 -0.23,0.07 -0.54,0.14 -0.93,0.18 -0.39,0.05 -0.87,0.07 -1.45,0.07 -0.58,0 -1.06,-0.02 -1.45,-0.07 -0.39,-0.04 -0.7,-0.11 -0.93,-0.18 -0.22,-0.08 -0.39,-0.18 -0.49,-0.29 -0.1,-0.13 -0.15,-0.27 -0.15,-0.42l0 -23.84 -7.39 0c-0.15,0 -0.28,-0.05 -0.39,-0.14 -0.1,-0.09 -0.2,-0.22 -0.27,-0.42 -0.07,-0.19 -0.14,-0.44 -0.17,-0.75 -0.04,-0.32 -0.06,-0.69 -0.06,-1.14 0,-0.45 0.02,-0.84 0.06,-1.16 0.03,-0.32 0.1,-0.58 0.17,-0.76 0.07,-0.2 0.17,-0.33 0.27,-0.42 0.11,-0.08 0.24,-0.12 0.39,-0.12l20.82 0c0.14,0 0.26,0.04 0.38,0.12 0.11,0.09 0.21,0.22 0.29,0.42 0.07,0.18 0.13,0.44 0.17,0.76 0.04,0.32 0.05,0.71 0.05,1.16z"/>
   <path id="_4" class="fil1" d="M195.96 245.89c0,0.44 -0.02,0.81 -0.05,1.11 -0.04,0.3 -0.1,0.54 -0.18,0.72 -0.07,0.19 -0.17,0.32 -0.29,0.41 -0.1,0.08 -0.24,0.12 -0.37,0.12l-14.83 0c-0.5,0 -0.92,-0.15 -1.27,-0.44 -0.34,-0.3 -0.51,-0.78 -0.51,-1.45l0 -25.79c0,-0.67 0.17,-1.15 0.51,-1.45 0.35,-0.29 0.77,-0.44 1.27,-0.44l14.76 0c0.13,0 0.26,0.04 0.37,0.12 0.1,0.07 0.19,0.21 0.27,0.39 0.07,0.2 0.13,0.44 0.17,0.74 0.04,0.3 0.06,0.67 0.06,1.14 0,0.42 -0.02,0.78 -0.06,1.09 -0.04,0.29 -0.09,0.53 -0.17,0.71 -0.08,0.19 -0.17,0.32 -0.27,0.41 -0.11,0.08 -0.24,0.12 -0.37,0.12l-10.55 0 0 7.21 8.89 0c0.14,0 0.27,0.04 0.37,0.13 0.12,0.08 0.21,0.21 0.29,0.39 0.08,0.17 0.13,0.4 0.17,0.71 0.04,0.29 0.06,0.65 0.06,1.07 0,0.45 -0.02,0.81 -0.06,1.1 -0.04,0.29 -0.09,0.52 -0.17,0.7 -0.08,0.17 -0.17,0.3 -0.29,0.37 -0.1,0.08 -0.23,0.12 -0.37,0.12l-8.89 0 0 8.33 10.62 0c0.14,0 0.27,0.03 0.37,0.12 0.12,0.09 0.22,0.22 0.29,0.41 0.08,0.18 0.14,0.42 0.18,0.71 0.03,0.31 0.05,0.67 0.05,1.12z"/>
   <path id="_5" class="fil1" d="M236.43 233.03c0,2.71 -0.35,5.03 -1.06,6.96 -0.71,1.93 -1.73,3.5 -3.05,4.72 -1.33,1.22 -2.94,2.11 -4.84,2.68 -1.89,0.57 -4.15,0.86 -6.77,0.86l-7.06 0c-0.51,0 -0.93,-0.15 -1.27,-0.44 -0.35,-0.3 -0.52,-0.78 -0.52,-1.45l0 -25.79c0,-0.67 0.17,-1.15 0.52,-1.45 0.34,-0.29 0.76,-0.44 1.27,-0.44l7.58 0c2.63,0 4.87,0.31 6.71,0.93 1.84,0.61 3.38,1.52 4.64,2.73 1.25,1.22 2.21,2.72 2.87,4.5 0.65,1.78 0.98,3.84 0.98,6.19zm-6.22 0.21c0,-1.4 -0.17,-2.7 -0.5,-3.91 -0.32,-1.2 -0.85,-2.24 -1.57,-3.12 -0.73,-0.88 -1.66,-1.57 -2.79,-2.06 -1.14,-0.5 -2.62,-0.75 -4.46,-0.75l-3.04 0 0 20.08 3.13 0c1.64,0 3.03,-0.21 4.16,-0.64 1.12,-0.42 2.06,-1.07 2.82,-1.93 0.75,-0.86 1.31,-1.92 1.68,-3.2 0.38,-1.28 0.57,-2.77 0.57,-4.47z"/>
   <path id="_6" class="fil1" d="M258.86 245.89c0,0.44 -0.02,0.81 -0.06,1.11 -0.04,0.3 -0.09,0.54 -0.17,0.72 -0.08,0.19 -0.17,0.32 -0.29,0.41 -0.11,0.08 -0.24,0.12 -0.37,0.12l-14.83 0c-0.5,0 -0.92,-0.15 -1.27,-0.44 -0.34,-0.3 -0.51,-0.78 -0.51,-1.45l0 -25.79c0,-0.67 0.17,-1.15 0.51,-1.45 0.35,-0.29 0.77,-0.44 1.27,-0.44l14.76 0c0.13,0 0.26,0.04 0.36,0.12 0.11,0.07 0.2,0.21 0.28,0.39 0.07,0.2 0.13,0.44 0.17,0.74 0.04,0.3 0.05,0.67 0.05,1.14 0,0.42 -0.01,0.78 -0.05,1.09 -0.04,0.29 -0.09,0.53 -0.17,0.71 -0.08,0.19 -0.17,0.32 -0.28,0.41 -0.1,0.08 -0.23,0.12 -0.36,0.12l-10.55 0 0 7.21 8.89 0c0.14,0 0.26,0.04 0.37,0.13 0.12,0.08 0.21,0.21 0.29,0.39 0.08,0.17 0.13,0.4 0.17,0.71 0.04,0.29 0.06,0.65 0.06,1.07 0,0.45 -0.02,0.81 -0.06,1.1 -0.04,0.29 -0.09,0.52 -0.17,0.7 -0.08,0.17 -0.17,0.3 -0.29,0.37 -0.11,0.08 -0.23,0.12 -0.37,0.12l-8.89 0 0 8.33 10.62 0c0.14,0 0.26,0.03 0.37,0.12 0.12,0.09 0.21,0.22 0.29,0.41 0.08,0.18 0.13,0.42 0.17,0.71 0.04,0.31 0.06,0.67 0.06,1.12z"/>
   <path id="_7" class="fil1" d="M295.21 243.78c0,0.39 -0.01,0.71 -0.03,0.98 -0.03,0.26 -0.06,0.5 -0.11,0.68 -0.04,0.2 -0.1,0.36 -0.18,0.5 -0.08,0.14 -0.2,0.29 -0.37,0.46 -0.16,0.17 -0.49,0.4 -0.97,0.67 -0.48,0.27 -1.06,0.53 -1.76,0.78 -0.69,0.25 -1.48,0.46 -2.37,0.62 -0.89,0.16 -1.85,0.25 -2.89,0.25 -2.02,0 -3.85,-0.31 -5.48,-0.94 -1.63,-0.62 -3.01,-1.56 -4.15,-2.8 -1.15,-1.24 -2.02,-2.78 -2.63,-4.64 -0.61,-1.86 -0.91,-4.02 -0.91,-6.49 0,-2.51 0.33,-4.74 1,-6.69 0.67,-1.95 1.61,-3.58 2.81,-4.91 1.2,-1.33 2.64,-2.32 4.33,-3.01 1.67,-0.69 3.53,-1.03 5.56,-1.03 0.82,0 1.61,0.07 2.37,0.21 0.76,0.13 1.47,0.31 2.11,0.54 0.65,0.22 1.23,0.47 1.75,0.76 0.52,0.3 0.88,0.55 1.08,0.75 0.21,0.21 0.35,0.38 0.43,0.52 0.07,0.14 0.14,0.31 0.17,0.52 0.05,0.22 0.09,0.47 0.11,0.76 0.03,0.28 0.04,0.63 0.04,1.06 0,0.46 -0.02,0.85 -0.05,1.17 -0.03,0.32 -0.09,0.57 -0.16,0.77 -0.07,0.19 -0.17,0.34 -0.27,0.43 -0.11,0.09 -0.24,0.14 -0.37,0.14 -0.22,0 -0.51,-0.13 -0.86,-0.4 -0.35,-0.27 -0.81,-0.56 -1.36,-0.89 -0.55,-0.33 -1.22,-0.62 -1.99,-0.89 -0.76,-0.26 -1.68,-0.4 -2.74,-0.4 -1.17,0 -2.22,0.25 -3.14,0.72 -0.92,0.49 -1.7,1.16 -2.35,2.05 -0.64,0.9 -1.13,1.98 -1.47,3.24 -0.34,1.25 -0.5,2.68 -0.5,4.27 0,1.73 0.18,3.23 0.54,4.5 0.36,1.27 0.86,2.32 1.53,3.14 0.65,0.82 1.46,1.43 2.39,1.83 0.94,0.41 1.99,0.61 3.16,0.61 1.06,0 1.98,-0.12 2.76,-0.37 0.77,-0.25 1.44,-0.54 1.99,-0.83 0.56,-0.31 1.01,-0.58 1.37,-0.82 0.36,-0.24 0.63,-0.37 0.84,-0.37 0.14,0 0.27,0.03 0.36,0.1 0.09,0.06 0.17,0.18 0.23,0.36 0.05,0.18 0.1,0.44 0.13,0.77 0.03,0.33 0.05,0.77 0.05,1.32z"/>
   <path id="_8" class="fil1" d="M305.57 247.43c0,0.15 -0.05,0.29 -0.15,0.42 -0.1,0.11 -0.27,0.21 -0.49,0.29 -0.23,0.07 -0.54,0.14 -0.92,0.18 -0.38,0.05 -0.87,0.07 -1.46,0.07 -0.58,0 -1.06,-0.02 -1.45,-0.07 -0.39,-0.04 -0.7,-0.11 -0.93,-0.18 -0.23,-0.08 -0.39,-0.18 -0.49,-0.29 -0.1,-0.13 -0.15,-0.27 -0.15,-0.42l0 -27.93c0,-0.15 0.05,-0.29 0.15,-0.42 0.1,-0.11 0.26,-0.21 0.51,-0.29 0.23,-0.08 0.53,-0.14 0.92,-0.18 0.38,-0.05 0.86,-0.07 1.44,-0.07 0.59,0 1.08,0.02 1.46,0.07 0.38,0.04 0.69,0.1 0.92,0.18 0.22,0.08 0.39,0.18 0.49,0.29 0.1,0.13 0.15,0.27 0.15,0.42l0 27.93z"/>
   <path id="_9" class="fil1" d="M346.45 247.43c0,0.15 -0.04,0.29 -0.13,0.42 -0.08,0.11 -0.24,0.21 -0.46,0.29 -0.21,0.07 -0.51,0.14 -0.88,0.18 -0.36,0.05 -0.83,0.07 -1.39,0.07 -0.56,0 -1.02,-0.02 -1.38,-0.07 -0.37,-0.04 -0.66,-0.11 -0.88,-0.18 -0.21,-0.08 -0.36,-0.18 -0.45,-0.29 -0.09,-0.13 -0.14,-0.27 -0.14,-0.42l0 -24.07 -0.05 0 -8.54 24.05c-0.06,0.19 -0.15,0.36 -0.29,0.49 -0.14,0.13 -0.32,0.24 -0.56,0.31 -0.24,0.07 -0.54,0.13 -0.9,0.15 -0.37,0.02 -0.81,0.03 -1.33,0.03 -0.52,0 -0.96,-0.01 -1.32,-0.05 -0.37,-0.04 -0.67,-0.1 -0.91,-0.19 -0.23,-0.09 -0.42,-0.19 -0.56,-0.3 -0.13,-0.13 -0.23,-0.28 -0.27,-0.44l-8.25 -24.05 -0.04 0 0 24.07c0,0.15 -0.04,0.29 -0.13,0.42 -0.08,0.11 -0.24,0.21 -0.47,0.29 -0.23,0.07 -0.52,0.14 -0.88,0.18 -0.36,0.05 -0.82,0.07 -1.38,0.07 -0.56,0 -1.02,-0.02 -1.38,-0.07 -0.37,-0.04 -0.67,-0.11 -0.89,-0.18 -0.21,-0.08 -0.37,-0.18 -0.46,-0.29 -0.08,-0.13 -0.12,-0.27 -0.12,-0.42l0 -26.35c0,-0.78 0.2,-1.37 0.62,-1.79 0.41,-0.41 0.95,-0.61 1.65,-0.61l3.93 0c0.7,0 1.31,0.05 1.81,0.17 0.51,0.12 0.94,0.3 1.31,0.57 0.36,0.26 0.67,0.62 0.91,1.05 0.24,0.44 0.46,0.98 0.64,1.62l6.37 17.61 0.1 0 6.59 -17.57c0.2,-0.64 0.42,-1.18 0.65,-1.63 0.24,-0.43 0.52,-0.79 0.83,-1.07 0.31,-0.27 0.68,-0.46 1.11,-0.58 0.42,-0.12 0.92,-0.17 1.48,-0.17l4.06 0c0.41,0 0.76,0.05 1.06,0.16 0.3,0.1 0.55,0.26 0.73,0.47 0.2,0.2 0.34,0.45 0.44,0.75 0.1,0.29 0.15,0.64 0.15,1.02l0 26.35z"/>
   <path id="_10" class="fil1" d="M377.12 246.01c0.18,0.55 0.3,0.99 0.35,1.31 0.04,0.32 -0.02,0.56 -0.18,0.72 -0.17,0.16 -0.47,0.26 -0.9,0.3 -0.42,0.04 -1.01,0.05 -1.76,0.05 -0.78,0 -1.38,-0.01 -1.81,-0.03 -0.44,-0.02 -0.77,-0.07 -1,-0.14 -0.23,-0.07 -0.38,-0.16 -0.48,-0.29 -0.09,-0.11 -0.17,-0.28 -0.22,-0.47l-1.94 -5.95 -11.16 0 -1.86 5.78c-0.06,0.22 -0.14,0.4 -0.24,0.54 -0.1,0.15 -0.26,0.26 -0.48,0.34 -0.22,0.09 -0.53,0.15 -0.93,0.18 -0.41,0.03 -0.94,0.04 -1.6,0.04 -0.7,0 -1.24,-0.02 -1.64,-0.07 -0.4,-0.04 -0.67,-0.15 -0.82,-0.33 -0.16,-0.17 -0.21,-0.42 -0.16,-0.74 0.04,-0.32 0.16,-0.74 0.34,-1.28l9.11 -26.25c0.08,-0.25 0.19,-0.46 0.32,-0.62 0.12,-0.17 0.31,-0.28 0.58,-0.37 0.27,-0.08 0.64,-0.14 1.11,-0.16 0.47,-0.02 1.09,-0.03 1.87,-0.03 0.9,0 1.62,0.01 2.15,0.03 0.54,0.02 0.95,0.08 1.25,0.16 0.29,0.09 0.5,0.21 0.63,0.38 0.13,0.17 0.25,0.39 0.33,0.68l9.14 26.22zm-13.57 -21.71l-0.02 0 -4.12 12.58 8.3 0 -4.16 -12.58z"/>
   <path class="fil1" d="M87.6 278.98c0,1.67 -0.26,3.13 -0.78,4.41 -0.52,1.29 -1.27,2.37 -2.27,3.24 -0.99,0.88 -2.21,1.54 -3.65,2 -1.44,0.46 -3.14,0.69 -5.1,0.69l-2.47 0 0 9.43c0,0.16 -0.05,0.29 -0.15,0.41 -0.1,0.12 -0.27,0.22 -0.49,0.3 -0.23,0.08 -0.53,0.13 -0.92,0.18 -0.37,0.05 -0.86,0.07 -1.45,0.07 -0.57,0 -1.06,-0.02 -1.45,-0.07 -0.39,-0.05 -0.69,-0.11 -0.92,-0.18 -0.22,-0.08 -0.39,-0.18 -0.47,-0.3 -0.1,-0.12 -0.14,-0.26 -0.14,-0.41l0 -26.6c0,-0.72 0.18,-1.26 0.56,-1.62 0.37,-0.36 0.86,-0.53 1.47,-0.53l6.97 0c0.71,0 1.38,0.02 2.01,0.07 0.63,0.06 1.39,0.17 2.28,0.35 0.88,0.18 1.77,0.5 2.68,0.97 0.9,0.47 1.68,1.07 2.32,1.8 0.64,0.72 1.13,1.56 1.47,2.54 0.33,0.97 0.5,2.05 0.5,3.25zm-6.27 0.44c0,-1.04 -0.19,-1.9 -0.56,-2.57 -0.36,-0.67 -0.81,-1.17 -1.35,-1.49 -0.54,-0.32 -1.1,-0.52 -1.69,-0.61 -0.59,-0.08 -1.2,-0.12 -1.83,-0.12l-2.57 0 0 10.06 2.71 0c0.97,0 1.77,-0.13 2.43,-0.39 0.64,-0.26 1.18,-0.62 1.59,-1.09 0.42,-0.46 0.73,-1.02 0.95,-1.67 0.21,-0.65 0.32,-1.36 0.32,-2.12z"/>
   <path id="_1_1" class="fil1" d="M116.45 297.33c0.18,0.55 0.3,0.98 0.35,1.3 0.04,0.32 -0.02,0.56 -0.18,0.73 -0.17,0.16 -0.47,0.26 -0.9,0.29 -0.42,0.04 -1.01,0.06 -1.75,0.06 -0.78,0 -1.39,-0.01 -1.82,-0.03 -0.44,-0.03 -0.77,-0.07 -1,-0.14 -0.22,-0.07 -0.38,-0.17 -0.47,-0.29 -0.1,-0.12 -0.18,-0.28 -0.23,-0.48l-1.94 -5.94 -11.16 0 -1.86 5.78c-0.06,0.22 -0.14,0.4 -0.24,0.54 -0.09,0.15 -0.26,0.26 -0.48,0.34 -0.21,0.09 -0.53,0.14 -0.93,0.17 -0.41,0.03 -0.94,0.05 -1.59,0.05 -0.7,0 -1.25,-0.02 -1.65,-0.07 -0.4,-0.05 -0.67,-0.16 -0.82,-0.33 -0.15,-0.18 -0.21,-0.43 -0.16,-0.75 0.05,-0.32 0.16,-0.74 0.34,-1.28l9.11 -26.24c0.09,-0.26 0.2,-0.47 0.32,-0.62 0.12,-0.17 0.31,-0.28 0.58,-0.37 0.27,-0.09 0.64,-0.14 1.11,-0.16 0.47,-0.03 1.1,-0.04 1.88,-0.04 0.89,0 1.61,0.01 2.14,0.04 0.54,0.02 0.95,0.07 1.25,0.16 0.29,0.09 0.5,0.21 0.64,0.37 0.12,0.18 0.24,0.4 0.32,0.69l9.14 26.22zm-13.57 -21.71l-0.02 0 -4.12 12.58 8.3 0 -4.16 -12.58z"/>
   <path id="_2_2" class="fil1" d="M142.54 298.8c0,0.16 -0.03,0.3 -0.09,0.42 -0.06,0.12 -0.2,0.21 -0.43,0.29 -0.23,0.07 -0.56,0.12 -1.01,0.15 -0.44,0.03 -1.04,0.05 -1.8,0.05 -0.64,0 -1.14,-0.02 -1.53,-0.05 -0.38,-0.03 -0.68,-0.08 -0.9,-0.17 -0.22,-0.08 -0.37,-0.19 -0.47,-0.32 -0.08,-0.13 -0.16,-0.29 -0.22,-0.47l-2.67 -6.62c-0.32,-0.75 -0.63,-1.42 -0.94,-1.99 -0.3,-0.59 -0.65,-1.07 -1.02,-1.46 -0.37,-0.39 -0.81,-0.68 -1.3,-0.88 -0.49,-0.2 -1.05,-0.3 -1.69,-0.3l-1.88 0 0 11.3c0,0.15 -0.05,0.29 -0.15,0.41 -0.1,0.12 -0.27,0.22 -0.49,0.3 -0.23,0.07 -0.53,0.13 -0.92,0.18 -0.37,0.05 -0.86,0.07 -1.45,0.07 -0.57,0 -1.06,-0.02 -1.45,-0.07 -0.39,-0.05 -0.69,-0.11 -0.92,-0.18 -0.22,-0.08 -0.39,-0.18 -0.47,-0.3 -0.1,-0.12 -0.14,-0.26 -0.14,-0.41l0 -26.86c0,-0.67 0.17,-1.15 0.51,-1.45 0.34,-0.3 0.77,-0.44 1.27,-0.44l7.65 0c0.78,0 1.42,0.01 1.92,0.04 0.5,0.03 0.96,0.07 1.37,0.11 1.19,0.17 2.26,0.46 3.21,0.87 0.95,0.41 1.76,0.95 2.43,1.61 0.66,0.66 1.16,1.44 1.52,2.35 0.35,0.9 0.52,1.94 0.52,3.12 0,0.98 -0.13,1.89 -0.38,2.7 -0.25,0.82 -0.62,1.54 -1.11,2.18 -0.48,0.64 -1.09,1.19 -1.8,1.66 -0.72,0.48 -1.54,0.85 -2.45,1.15 0.44,0.21 0.86,0.47 1.25,0.77 0.39,0.3 0.75,0.68 1.1,1.12 0.34,0.43 0.67,0.92 0.97,1.49 0.31,0.55 0.6,1.18 0.89,1.88l2.5 5.84c0.23,0.58 0.39,1 0.46,1.28 0.07,0.26 0.11,0.47 0.11,0.63zm-7.76 -20.09c0,-0.97 -0.22,-1.8 -0.67,-2.46 -0.44,-0.67 -1.17,-1.15 -2.17,-1.42 -0.31,-0.08 -0.65,-0.13 -1.04,-0.18 -0.39,-0.05 -0.93,-0.07 -1.62,-0.07l-2.69 0 0 8.38 3.06 0c0.86,0 1.6,-0.1 2.24,-0.31 0.65,-0.21 1.18,-0.5 1.61,-0.87 0.43,-0.37 0.75,-0.82 0.96,-1.33 0.21,-0.52 0.32,-1.1 0.32,-1.74z"/>
   <path id="_3_3" class="fil1" d="M166.6 272.46c0,0.44 -0.02,0.82 -0.06,1.14 -0.04,0.31 -0.09,0.56 -0.17,0.75 -0.08,0.19 -0.17,0.33 -0.29,0.42 -0.11,0.09 -0.24,0.14 -0.37,0.14l-7.4 0 0 23.84c0,0.15 -0.04,0.29 -0.15,0.41 -0.1,0.12 -0.26,0.22 -0.49,0.3 -0.22,0.07 -0.54,0.13 -0.93,0.18 -0.39,0.05 -0.87,0.07 -1.45,0.07 -0.57,0 -1.06,-0.02 -1.45,-0.07 -0.39,-0.05 -0.7,-0.11 -0.92,-0.18 -0.23,-0.08 -0.39,-0.18 -0.5,-0.3 -0.1,-0.12 -0.14,-0.26 -0.14,-0.41l0 -23.84 -7.4 0c-0.15,0 -0.28,-0.05 -0.39,-0.14 -0.1,-0.09 -0.19,-0.23 -0.27,-0.42 -0.07,-0.19 -0.13,-0.44 -0.17,-0.75 -0.04,-0.32 -0.06,-0.7 -0.06,-1.14 0,-0.45 0.02,-0.84 0.06,-1.16 0.04,-0.32 0.1,-0.58 0.17,-0.77 0.08,-0.19 0.17,-0.32 0.27,-0.41 0.11,-0.09 0.24,-0.12 0.39,-0.12l20.83 0c0.13,0 0.25,0.03 0.37,0.12 0.12,0.09 0.21,0.22 0.29,0.41 0.08,0.19 0.13,0.45 0.17,0.77 0.04,0.32 0.06,0.71 0.06,1.16z"/>
   <path id="_4_4" class="fil1" d="M187.61 297.21c0,0.44 -0.01,0.81 -0.05,1.11 -0.04,0.3 -0.1,0.54 -0.17,0.72 -0.08,0.19 -0.18,0.32 -0.29,0.4 -0.11,0.09 -0.24,0.13 -0.38,0.13l-14.83 0c-0.5,0 -0.92,-0.15 -1.26,-0.45 -0.35,-0.29 -0.52,-0.78 -0.52,-1.45l0 -25.78c0,-0.67 0.17,-1.15 0.52,-1.45 0.34,-0.3 0.76,-0.44 1.26,-0.44l14.76 0c0.14,0 0.26,0.03 0.37,0.11 0.1,0.08 0.19,0.21 0.27,0.4 0.07,0.19 0.14,0.44 0.17,0.73 0.04,0.31 0.06,0.68 0.06,1.14 0,0.43 -0.02,0.79 -0.06,1.09 -0.03,0.3 -0.09,0.54 -0.17,0.72 -0.08,0.19 -0.17,0.32 -0.27,0.41 -0.11,0.08 -0.23,0.12 -0.37,0.12l-10.55 0 0 7.21 8.89 0c0.14,0 0.27,0.04 0.38,0.12 0.11,0.09 0.21,0.21 0.29,0.39 0.07,0.17 0.13,0.41 0.17,0.71 0.04,0.3 0.05,0.66 0.05,1.08 0,0.44 -0.01,0.81 -0.05,1.1 -0.04,0.29 -0.1,0.52 -0.17,0.69 -0.08,0.18 -0.18,0.31 -0.29,0.38 -0.11,0.07 -0.24,0.11 -0.38,0.11l-8.89 0 0 8.33 10.62 0c0.14,0 0.27,0.04 0.38,0.13 0.11,0.08 0.21,0.22 0.29,0.4 0.07,0.18 0.13,0.42 0.17,0.72 0.04,0.31 0.05,0.67 0.05,1.12z"/>
   <path id="_5_5" class="fil1" d="M228.08 284.35c0,2.71 -0.35,5.03 -1.06,6.96 -0.71,1.93 -1.72,3.49 -3.05,4.72 -1.32,1.22 -2.94,2.11 -4.83,2.68 -1.9,0.57 -4.16,0.86 -6.78,0.86l-7.06 0c-0.51,0 -0.93,-0.15 -1.27,-0.45 -0.34,-0.29 -0.52,-0.78 -0.52,-1.45l0 -25.78c0,-0.67 0.18,-1.15 0.52,-1.45 0.34,-0.3 0.76,-0.44 1.27,-0.44l7.58 0c2.64,0 4.88,0.31 6.71,0.92 1.84,0.62 3.38,1.53 4.64,2.74 1.25,1.22 2.21,2.71 2.87,4.49 0.65,1.79 0.98,3.85 0.98,6.2zm-6.22 0.21c0,-1.41 -0.17,-2.7 -0.49,-3.91 -0.33,-1.2 -0.85,-2.24 -1.58,-3.12 -0.72,-0.88 -1.65,-1.58 -2.78,-2.07 -1.14,-0.49 -2.62,-0.74 -4.47,-0.74l-3.04 0 0 20.08 3.13 0c1.65,0 3.04,-0.21 4.16,-0.64 1.12,-0.42 2.07,-1.07 2.82,-1.93 0.75,-0.86 1.31,-1.93 1.69,-3.21 0.37,-1.27 0.56,-2.76 0.56,-4.46z"/>
   <path id="_6_6" class="fil1" d="M250.51 297.21c0,0.44 -0.02,0.81 -0.05,1.11 -0.04,0.3 -0.1,0.54 -0.18,0.72 -0.07,0.19 -0.17,0.32 -0.28,0.4 -0.11,0.09 -0.25,0.13 -0.38,0.13l-14.83 0c-0.5,0 -0.92,-0.15 -1.27,-0.45 -0.34,-0.29 -0.51,-0.78 -0.51,-1.45l0 -25.78c0,-0.67 0.17,-1.15 0.51,-1.45 0.35,-0.3 0.77,-0.44 1.27,-0.44l14.76 0c0.13,0 0.26,0.03 0.37,0.11 0.1,0.08 0.19,0.21 0.27,0.4 0.07,0.19 0.13,0.44 0.17,0.73 0.04,0.31 0.06,0.68 0.06,1.14 0,0.43 -0.02,0.79 -0.06,1.09 -0.04,0.3 -0.09,0.54 -0.17,0.72 -0.08,0.19 -0.17,0.32 -0.27,0.41 -0.11,0.08 -0.24,0.12 -0.37,0.12l-10.55 0 0 7.21 8.89 0c0.14,0 0.27,0.04 0.38,0.12 0.11,0.09 0.21,0.21 0.28,0.39 0.08,0.17 0.14,0.41 0.17,0.71 0.04,0.3 0.06,0.66 0.06,1.08 0,0.44 -0.02,0.81 -0.06,1.1 -0.03,0.29 -0.09,0.52 -0.17,0.69 -0.07,0.18 -0.17,0.31 -0.28,0.38 -0.11,0.07 -0.24,0.11 -0.38,0.11l-8.89 0 0 8.33 10.62 0c0.14,0 0.27,0.04 0.38,0.13 0.11,0.08 0.21,0.22 0.28,0.4 0.08,0.18 0.14,0.42 0.18,0.72 0.03,0.31 0.05,0.67 0.05,1.12z"/>
   <path id="_7_7" class="fil1" d="M287.8 290.69c0,1.06 -0.15,2.01 -0.44,2.87 -0.29,0.85 -0.69,1.6 -1.19,2.26 -0.52,0.65 -1.13,1.21 -1.83,1.69 -0.71,0.48 -1.49,0.86 -2.34,1.17 -0.85,0.3 -1.76,0.53 -2.73,0.67 -0.96,0.15 -2.04,0.22 -3.23,0.22l-7.85 0c-0.5,0 -0.92,-0.15 -1.26,-0.45 -0.35,-0.29 -0.52,-0.78 -0.52,-1.45l0 -25.78c0,-0.67 0.17,-1.15 0.52,-1.45 0.34,-0.3 0.76,-0.44 1.26,-0.44l7.41 0c1.81,0 3.34,0.15 4.59,0.46 1.26,0.3 2.31,0.76 3.17,1.38 0.87,0.61 1.52,1.39 1.97,2.34 0.46,0.94 0.69,2.05 0.69,3.33 0,0.71 -0.09,1.38 -0.27,2.02 -0.18,0.63 -0.46,1.2 -0.8,1.72 -0.35,0.52 -0.78,0.97 -1.29,1.37 -0.51,0.4 -1.09,0.72 -1.74,0.96 0.83,0.16 1.61,0.42 2.32,0.8 0.71,0.39 1.33,0.88 1.85,1.48 0.53,0.6 0.94,1.31 1.25,2.11 0.3,0.81 0.46,1.72 0.46,2.72zm-7.77 -12.46c0,-0.59 -0.09,-1.12 -0.27,-1.6 -0.18,-0.47 -0.46,-0.86 -0.82,-1.18 -0.37,-0.31 -0.83,-0.54 -1.38,-0.71 -0.56,-0.17 -1.3,-0.25 -2.23,-0.25l-3.02 0 0 7.67 3.34 0c0.87,0 1.56,-0.1 2.08,-0.31 0.51,-0.2 0.94,-0.48 1.29,-0.84 0.34,-0.36 0.59,-0.78 0.76,-1.26 0.16,-0.48 0.25,-0.98 0.25,-1.52zm1.54 12.68c0,-0.68 -0.11,-1.3 -0.34,-1.85 -0.23,-0.53 -0.56,-0.99 -1.01,-1.35 -0.43,-0.37 -0.99,-0.65 -1.68,-0.85 -0.69,-0.2 -1.57,-0.3 -2.68,-0.3l-3.55 0 0 8.42 4.33 0c0.84,0 1.54,-0.08 2.12,-0.26 0.57,-0.17 1.06,-0.44 1.48,-0.78 0.41,-0.34 0.74,-0.77 0.98,-1.28 0.24,-0.51 0.35,-1.09 0.35,-1.75z"/>
   <path id="_8_8" class="fil1" d="M316.86 297.33c0.18,0.55 0.29,0.98 0.34,1.3 0.05,0.32 -0.02,0.56 -0.18,0.73 -0.17,0.16 -0.47,0.26 -0.9,0.29 -0.42,0.04 -1.01,0.06 -1.75,0.06 -0.78,0 -1.39,-0.01 -1.82,-0.03 -0.44,-0.03 -0.76,-0.07 -1,-0.14 -0.22,-0.07 -0.38,-0.17 -0.47,-0.29 -0.1,-0.12 -0.17,-0.28 -0.23,-0.48l-1.94 -5.94 -11.15 0 -1.87 5.78c-0.06,0.22 -0.14,0.4 -0.24,0.54 -0.09,0.15 -0.26,0.26 -0.47,0.34 -0.22,0.09 -0.54,0.14 -0.94,0.17 -0.41,0.03 -0.94,0.05 -1.59,0.05 -0.7,0 -1.25,-0.02 -1.65,-0.07 -0.4,-0.05 -0.67,-0.16 -0.82,-0.33 -0.15,-0.18 -0.21,-0.43 -0.16,-0.75 0.05,-0.32 0.16,-0.74 0.34,-1.28l9.11 -26.24c0.09,-0.26 0.2,-0.47 0.32,-0.62 0.12,-0.17 0.31,-0.28 0.58,-0.37 0.27,-0.09 0.64,-0.14 1.11,-0.16 0.47,-0.03 1.1,-0.04 1.88,-0.04 0.89,0 1.61,0.01 2.14,0.04 0.54,0.02 0.95,0.07 1.25,0.16 0.29,0.09 0.51,0.21 0.64,0.37 0.12,0.18 0.24,0.4 0.33,0.69l9.14 26.22zm-13.57 -21.71l-0.03 0 -4.11 12.58 8.29 0 -4.15 -12.58z"/>
   <path id="_9_9" class="fil1" d="M327.03 298.75c0,0.15 -0.04,0.29 -0.14,0.41 -0.11,0.12 -0.27,0.22 -0.5,0.3 -0.22,0.07 -0.53,0.13 -0.91,0.18 -0.38,0.05 -0.87,0.07 -1.46,0.07 -0.58,0 -1.06,-0.02 -1.46,-0.07 -0.39,-0.05 -0.7,-0.11 -0.92,-0.18 -0.23,-0.08 -0.39,-0.18 -0.49,-0.3 -0.11,-0.12 -0.15,-0.26 -0.15,-0.41l0 -27.94c0,-0.14 0.04,-0.28 0.15,-0.41 0.1,-0.12 0.26,-0.22 0.5,-0.29 0.24,-0.08 0.54,-0.14 0.92,-0.18 0.39,-0.05 0.87,-0.08 1.45,-0.08 0.59,0 1.08,0.03 1.46,0.08 0.38,0.04 0.69,0.1 0.91,0.18 0.23,0.07 0.39,0.17 0.5,0.29 0.1,0.13 0.14,0.27 0.14,0.41l0 27.94z"/>
   <path id="_10_10" class="fil1" d="M354.56 297.31c0.27,0.54 0.45,0.96 0.54,1.28 0.08,0.32 0.03,0.57 -0.15,0.73 -0.19,0.17 -0.52,0.27 -0.99,0.32 -0.49,0.05 -1.15,0.07 -2,0.07 -0.71,0 -1.28,-0.02 -1.68,-0.05 -0.42,-0.03 -0.74,-0.08 -0.97,-0.14 -0.24,-0.08 -0.41,-0.17 -0.52,-0.29 -0.11,-0.12 -0.19,-0.28 -0.27,-0.46l-5.57 -10.67 -5.52 10.67c-0.09,0.18 -0.19,0.34 -0.3,0.46 -0.1,0.12 -0.28,0.21 -0.51,0.29 -0.24,0.06 -0.57,0.11 -0.99,0.14 -0.42,0.03 -0.98,0.05 -1.66,0.05 -0.8,0 -1.41,-0.02 -1.85,-0.07 -0.43,-0.05 -0.73,-0.15 -0.88,-0.32 -0.15,-0.16 -0.18,-0.41 -0.09,-0.73 0.09,-0.32 0.28,-0.74 0.57,-1.28l7.08 -12.92 -6.59 -12.13c-0.27,-0.56 -0.46,-0.99 -0.56,-1.32 -0.09,-0.33 -0.06,-0.57 0.12,-0.73 0.17,-0.16 0.5,-0.26 0.97,-0.3 0.47,-0.04 1.14,-0.06 2.01,-0.06 0.71,0 1.28,0.02 1.71,0.05 0.42,0.03 0.74,0.08 0.99,0.15 0.25,0.07 0.42,0.16 0.51,0.29 0.1,0.12 0.2,0.27 0.29,0.45l5.22 9.79 5.03 -9.79c0.09,-0.18 0.18,-0.33 0.29,-0.45 0.09,-0.13 0.25,-0.22 0.47,-0.29 0.22,-0.07 0.52,-0.12 0.91,-0.15 0.39,-0.03 0.93,-0.05 1.62,-0.05 0.75,0 1.36,0.02 1.8,0.06 0.44,0.04 0.74,0.14 0.91,0.31 0.17,0.17 0.21,0.41 0.13,0.74 -0.09,0.31 -0.26,0.74 -0.52,1.3l-6.58 12.06 7.03 12.99z"/>
   <path id="_11" class="fil1" d="M385.83 284.44c0,2.45 -0.3,4.64 -0.91,6.57 -0.61,1.94 -1.51,3.58 -2.72,4.93 -1.2,1.34 -2.69,2.37 -4.46,3.08 -1.78,0.71 -3.83,1.06 -6.17,1.06 -2.3,0 -4.3,-0.3 -6.01,-0.9 -1.71,-0.6 -3.14,-1.51 -4.29,-2.75 -1.14,-1.24 -1.99,-2.8 -2.56,-4.71 -0.57,-1.9 -0.86,-4.15 -0.86,-6.76 0,-2.38 0.3,-4.54 0.91,-6.45 0.61,-1.91 1.51,-3.53 2.72,-4.87 1.2,-1.34 2.69,-2.37 4.46,-3.08 1.78,-0.72 3.84,-1.08 6.19,-1.08 2.24,0 4.21,0.3 5.93,0.89 1.7,0.59 3.14,1.51 4.29,2.75 1.15,1.23 2.02,2.78 2.6,4.66 0.59,1.89 0.88,4.1 0.88,6.66zm-6.32 0.3c0,-1.55 -0.12,-2.96 -0.36,-4.23 -0.24,-1.27 -0.66,-2.36 -1.24,-3.27 -0.59,-0.9 -1.37,-1.61 -2.34,-2.11 -0.98,-0.49 -2.19,-0.74 -3.65,-0.74 -1.48,0 -2.71,0.28 -3.69,0.84 -0.99,0.55 -1.79,1.3 -2.4,2.23 -0.61,0.93 -1.04,2.01 -1.29,3.25 -0.25,1.25 -0.37,2.56 -0.37,3.95 0,1.61 0.12,3.06 0.36,4.35 0.24,1.29 0.66,2.39 1.24,3.31 0.57,0.91 1.34,1.6 2.32,2.09 0.97,0.47 2.2,0.71 3.67,0.71 1.48,0 2.71,-0.27 3.69,-0.82 0.99,-0.55 1.8,-1.3 2.4,-2.24 0.61,-0.94 1.04,-2.04 1.29,-3.3 0.25,-1.26 0.37,-2.6 0.37,-4.02z"/>
   <path class="fil2" d="M147.11 165.05c0,2.43 -0.08,4.52 -0.3,6.22 -0.21,1.71 -0.55,3.07 -0.94,4.18 -0.42,1.07 -0.98,1.83 -1.61,2.3 -0.69,0.47 -1.45,0.68 -2.26,0.68l-92.97 0c-1.83,0 -3.41,-0.17 -4.73,-0.51 -1.32,-0.34 -2.43,-0.98 -3.24,-1.92 -0.85,-0.98 -1.45,-2.34 -1.83,-4.17 -0.39,-1.84 -0.56,-4.22 -0.56,-7.12 0,-2.77 0.13,-5.12 0.39,-7.08 0.25,-1.96 0.68,-3.71 1.36,-5.24 0.68,-1.54 1.54,-3.03 2.56,-4.48 1.06,-1.49 2.39,-3.07 4.09,-4.81l28 -29.93c5.59,-5.84 10.11,-11.12 13.52,-15.94 3.41,-4.77 6.09,-9.16 8.01,-13.13 1.92,-3.96 3.2,-7.58 3.92,-10.91 0.73,-3.32 1.07,-6.52 1.07,-9.5 0,-2.73 -0.43,-5.33 -1.32,-7.8 -0.86,-2.43 -2.18,-4.57 -3.88,-6.4 -1.71,-1.83 -3.84,-3.24 -6.44,-4.3 -2.56,-1.03 -5.58,-1.54 -9.12,-1.54 -4.9,0 -9.25,0.64 -13.04,1.88 -3.8,1.23 -7.12,2.64 -9.98,4.18 -2.9,1.57 -5.28,2.98 -7.2,4.26 -1.92,1.32 -3.41,1.96 -4.48,1.96 -0.76,0 -1.4,-0.26 -1.96,-0.77 -0.55,-0.47 -0.98,-1.32 -1.32,-2.47 -0.3,-1.19 -0.6,-2.73 -0.81,-4.73 -0.21,-1.96 -0.3,-4.35 -0.3,-7.16 0,-1.92 0.04,-3.54 0.17,-4.86 0.13,-1.28 0.34,-2.39 0.6,-3.37 0.21,-0.94 0.55,-1.79 0.98,-2.52 0.43,-0.68 1.15,-1.53 2.17,-2.55 1.07,-0.98 2.99,-2.26 5.76,-3.8 2.81,-1.57 6.22,-3.06 10.31,-4.51 4.09,-1.45 8.57,-2.69 13.52,-3.71 4.9,-0.98 10.01,-1.49 15.34,-1.49 8.44,0 15.77,1.06 22.08,3.19 6.27,2.13 11.51,5.07 15.69,8.87 4.17,3.79 7.24,8.27 9.29,13.47 2.04,5.2 3.07,10.78 3.07,16.79 0,5.24 -0.51,10.4 -1.49,15.47 -1.03,5.12 -3.12,10.58 -6.27,16.46 -3.16,5.84 -7.63,12.36 -13.39,19.48 -5.75,7.12 -13.38,15.39 -22.88,24.81l-18.89 19.3 63.68 0c0.86,0 1.62,0.26 2.31,0.77 0.72,0.47 1.32,1.24 1.83,2.3 0.51,1.03 0.85,2.39 1.11,4.1 0.25,1.7 0.38,3.75 0.38,6.05z"/>
   <path id="_1_11" class="fil2" d="M276.73 165.05c0,2.43 -0.08,4.52 -0.3,6.22 -0.21,1.71 -0.55,3.07 -0.93,4.18 -0.43,1.07 -0.98,1.83 -1.62,2.3 -0.69,0.47 -1.45,0.68 -2.26,0.68l-92.97 0c-1.83,0 -3.41,-0.17 -4.73,-0.51 -1.32,-0.34 -2.43,-0.98 -3.24,-1.92 -0.85,-0.98 -1.45,-2.34 -1.83,-4.17 -0.39,-1.84 -0.55,-4.22 -0.55,-7.12 0,-2.77 0.12,-5.12 0.38,-7.08 0.25,-1.96 0.68,-3.71 1.36,-5.24 0.68,-1.54 1.54,-3.03 2.56,-4.48 1.07,-1.49 2.39,-3.07 4.09,-4.81l28.01 -29.93c5.58,-5.84 10.1,-11.12 13.51,-15.94 3.41,-4.77 6.09,-9.16 8.01,-13.13 1.92,-3.96 3.2,-7.58 3.92,-10.91 0.73,-3.32 1.07,-6.52 1.07,-9.5 0,-2.73 -0.43,-5.33 -1.32,-7.8 -0.86,-2.43 -2.18,-4.57 -3.88,-6.4 -1.71,-1.83 -3.84,-3.24 -6.44,-4.3 -2.56,-1.03 -5.58,-1.54 -9.12,-1.54 -4.9,0 -9.25,0.64 -13.04,1.88 -3.8,1.23 -7.12,2.64 -9.98,4.18 -2.89,1.57 -5.28,2.98 -7.2,4.26 -1.92,1.32 -3.41,1.96 -4.48,1.96 -0.76,0 -1.4,-0.26 -1.96,-0.77 -0.55,-0.47 -0.98,-1.32 -1.32,-2.47 -0.3,-1.19 -0.59,-2.73 -0.81,-4.73 -0.21,-1.96 -0.3,-4.35 -0.3,-7.16 0,-1.92 0.05,-3.54 0.17,-4.86 0.13,-1.28 0.35,-2.39 0.6,-3.37 0.21,-0.94 0.55,-1.79 0.98,-2.52 0.43,-0.68 1.15,-1.53 2.18,-2.55 1.06,-0.98 2.98,-2.26 5.75,-3.8 2.81,-1.57 6.22,-3.06 10.32,-4.51 4.09,-1.45 8.56,-2.69 13.51,-3.71 4.9,-0.98 10.01,-1.49 15.34,-1.49 8.44,0 15.77,1.06 22.08,3.19 6.27,2.13 11.51,5.07 15.69,8.87 4.18,3.79 7.24,8.27 9.29,13.47 2.05,5.2 3.07,10.78 3.07,16.79 0,5.24 -0.51,10.4 -1.49,15.47 -1.03,5.12 -3.11,10.58 -6.27,16.46 -3.15,5.84 -7.63,12.36 -13.38,19.48 -5.76,7.12 -13.39,15.39 -22.89,24.81l-18.89 19.3 63.69 0c0.85,0 1.62,0.26 2.3,0.77 0.72,0.47 1.32,1.24 1.83,2.3 0.51,1.03 0.85,2.39 1.11,4.1 0.25,1.7 0.38,3.75 0.38,6.05z"/>
   <path class="fil2" d="M316.22 79.11c0,1.53 -0.08,2.91 -0.24,4.16 -0.15,1.23 -0.39,2.4 -0.74,3.51 -0.35,1.11 -0.78,2.18 -1.33,3.23 -0.52,1.04 -1.18,2.13 -1.98,3.22l-7.69 10.98c-0.27,0.39 -0.56,0.72 -0.89,0.98 -0.34,0.27 -0.73,0.48 -1.17,0.64 -0.47,0.14 -1.02,0.27 -1.66,0.37 -0.66,0.1 -1.48,0.14 -2.48,0.14 -1.09,0 -2.01,-0.04 -2.69,-0.14 -0.68,-0.1 -1.19,-0.25 -1.48,-0.43 -0.31,-0.19 -0.47,-0.45 -0.49,-0.74 -0.02,-0.31 0.06,-0.68 0.26,-1.09l7.01 -15.8 0 -9.03c0,-1.3 0.16,-2.34 0.45,-3.13 0.32,-0.81 0.8,-1.43 1.45,-1.84 0.64,-0.43 1.46,-0.7 2.45,-0.84 1,-0.13 2.19,-0.19 3.61,-0.19 1.33,0 2.48,0.06 3.43,0.19 0.96,0.14 1.74,0.41 2.38,0.84 0.63,0.41 1.07,1.03 1.37,1.84 0.29,0.79 0.43,1.83 0.43,3.13z"/>
   <path id="_1_12" class="fil2" d="M377.04 49.26c0,3 -0.16,6.12 -0.45,9.34 -0.31,3.22 -0.9,6.38 -1.76,9.46 -0.85,3.08 -2.02,6 -3.54,8.79 -1.51,2.77 -3.46,5.21 -5.83,7.28 -2.38,2.06 -5.29,3.72 -8.7,4.93 -3.41,1.23 -7.43,1.83 -12.09,1.83 -1.64,0 -3.26,-0.12 -4.9,-0.35 -1.62,-0.21 -3.08,-0.51 -4.42,-0.84 -1.33,-0.35 -2.46,-0.72 -3.4,-1.09 -0.93,-0.39 -1.62,-0.78 -2.02,-1.17 -0.43,-0.41 -0.75,-0.97 -0.92,-1.73 -0.2,-0.77 -0.29,-1.84 -0.29,-3.2 0,-1.27 0.02,-2.27 0.08,-3.03 0.05,-0.76 0.17,-1.36 0.35,-1.77 0.17,-0.43 0.39,-0.7 0.62,-0.84 0.25,-0.12 0.55,-0.19 0.9,-0.19 0.44,0 1.11,0.13 1.95,0.41 0.83,0.25 1.85,0.56 3.06,0.91 1.21,0.33 2.57,0.65 4.09,0.9 1.52,0.27 3.24,0.41 5.11,0.41 3.2,0 5.91,-0.57 8.13,-1.72 2.21,-1.15 4,-2.69 5.39,-4.64 1.38,-1.95 2.37,-4.21 3.04,-6.76 0.64,-2.56 1.01,-5.25 1.09,-8.08 -1.76,1.11 -3.88,2.07 -6.36,2.89 -2.47,0.82 -5.32,1.23 -8.52,1.23 -3.94,0 -7.27,-0.51 -10,-1.54 -2.75,-1.04 -4.99,-2.52 -6.71,-4.45 -1.72,-1.95 -2.96,-4.29 -3.74,-7.08 -0.78,-2.77 -1.18,-5.91 -1.18,-9.4 0,-3.7 0.55,-7.1 1.66,-10.2 1.12,-3.08 2.75,-5.77 4.92,-8.03 2.16,-2.26 4.87,-4.02 8.11,-5.26 3.24,-1.27 6.98,-1.9 11.25,-1.9 3.43,0 6.44,0.39 8.99,1.19 2.57,0.8 4.78,1.95 6.63,3.44 1.85,1.48 3.39,3.29 4.62,5.4 1.25,2.1 2.22,4.46 2.93,7.06 0.7,2.57 1.19,5.38 1.48,8.38 0.29,3 0.43,6.14 0.43,9.42zm-14.86 -2.13c0,-4.05 -0.24,-7.44 -0.68,-10.16 -0.47,-2.73 -1.15,-4.91 -2.07,-6.53 -0.92,-1.62 -2.07,-2.79 -3.43,-3.47 -1.37,-0.68 -2.99,-1.01 -4.82,-1.01 -1.79,0 -3.33,0.31 -4.62,0.93 -1.31,0.63 -2.38,1.5 -3.24,2.64 -0.86,1.15 -1.5,2.47 -1.93,4.03 -0.41,1.56 -0.62,3.26 -0.62,5.11 0,2.01 0.17,3.78 0.54,5.3 0.35,1.55 0.94,2.81 1.72,3.81 0.78,1.01 1.79,1.75 3.06,2.24 1.27,0.49 2.79,0.74 4.58,0.74 2.21,0 4.31,-0.33 6.26,-0.99 1.97,-0.67 3.73,-1.54 5.25,-2.64z"/>
   <path id="_2_13" class="fil2" d="M436.34 49.26c0,3 -0.16,6.12 -0.45,9.34 -0.31,3.22 -0.9,6.38 -1.76,9.46 -0.85,3.08 -2.02,6 -3.54,8.79 -1.51,2.77 -3.46,5.21 -5.83,7.28 -2.38,2.06 -5.29,3.72 -8.7,4.93 -3.41,1.23 -7.43,1.83 -12.09,1.83 -1.64,0 -3.26,-0.12 -4.9,-0.35 -1.62,-0.21 -3.08,-0.51 -4.42,-0.84 -1.33,-0.35 -2.46,-0.72 -3.4,-1.09 -0.93,-0.39 -1.62,-0.78 -2.02,-1.17 -0.43,-0.41 -0.74,-0.97 -0.92,-1.73 -0.2,-0.77 -0.29,-1.84 -0.29,-3.2 0,-1.27 0.02,-2.27 0.08,-3.03 0.05,-0.76 0.17,-1.36 0.35,-1.77 0.17,-0.43 0.39,-0.7 0.62,-0.84 0.25,-0.12 0.55,-0.19 0.9,-0.19 0.44,0 1.11,0.13 1.95,0.41 0.83,0.25 1.85,0.56 3.06,0.91 1.21,0.33 2.57,0.65 4.09,0.9 1.52,0.27 3.24,0.41 5.11,0.41 3.2,0 5.91,-0.57 8.13,-1.72 2.21,-1.15 4,-2.69 5.39,-4.64 1.38,-1.95 2.37,-4.21 3.04,-6.76 0.64,-2.56 1.01,-5.25 1.09,-8.08 -1.76,1.11 -3.88,2.07 -6.36,2.89 -2.47,0.82 -5.32,1.23 -8.52,1.23 -3.94,0 -7.27,-0.51 -10,-1.54 -2.75,-1.04 -4.99,-2.52 -6.71,-4.45 -1.72,-1.95 -2.96,-4.29 -3.74,-7.08 -0.78,-2.77 -1.18,-5.91 -1.18,-9.4 0,-3.7 0.55,-7.1 1.66,-10.2 1.12,-3.08 2.75,-5.77 4.92,-8.03 2.16,-2.26 4.87,-4.02 8.11,-5.26 3.24,-1.27 6.98,-1.9 11.25,-1.9 3.43,0 6.44,0.39 8.99,1.19 2.57,0.8 4.78,1.95 6.63,3.44 1.85,1.48 3.39,3.29 4.62,5.4 1.25,2.1 2.22,4.46 2.93,7.06 0.7,2.57 1.19,5.38 1.48,8.38 0.29,3 0.43,6.14 0.43,9.42zm-14.86 -2.13c0,-4.05 -0.24,-7.44 -0.68,-10.16 -0.47,-2.73 -1.15,-4.91 -2.07,-6.53 -0.92,-1.62 -2.07,-2.79 -3.43,-3.47 -1.37,-0.68 -2.99,-1.01 -4.82,-1.01 -1.79,0 -3.33,0.31 -4.62,0.93 -1.31,0.63 -2.38,1.5 -3.24,2.64 -0.86,1.15 -1.5,2.47 -1.93,4.03 -0.41,1.56 -0.62,3.26 -0.62,5.11 0,2.01 0.17,3.78 0.54,5.3 0.35,1.55 0.94,2.81 1.72,3.81 0.78,1.01 1.79,1.75 3.06,2.24 1.27,0.49 2.79,0.74 4.58,0.74 2.21,0 4.31,-0.33 6.26,-0.99 1.97,-0.67 3.73,-1.54 5.25,-2.64z"/>
  </g>
 </g>
</svg>
