<?xml version="1.0" encoding="UTF-8" standalone="no"?>
<!DOCTYPE svg PUBLIC "-//W3C//DTD SVG 1.1//EN" "http://www.w3.org/Graphics/SVG/1.1/DTD/svg11.dtd">
<svg width="100%" height="100%" viewBox="0 0 1260 552" version="1.1" xmlns="http://www.w3.org/2000/svg" xmlns:xlink="http://www.w3.org/1999/xlink" xml:space="preserve" xmlns:serif="http://www.serif.com/" style="fill-rule:evenodd;clip-rule:evenodd;stroke-linejoin:round;stroke-miterlimit:2;">
    <g id="Solo" transform="matrix(1.6,0,0,1,0,0)">
        <rect x="0" y="0" width="787.402" height="551.181" style="fill:none;"/>
        <g transform="matrix(0.758582,0,0,1.492,95.0463,-67.9197)">
            <path d="M708.661,127.953C708.661,100.792 681.554,78.74 648.166,78.74L139.236,78.74C105.847,78.74 78.74,100.792 78.74,127.953L78.74,226.378C78.74,253.539 105.847,275.591 139.236,275.591L648.166,275.591C681.554,275.591 708.661,253.539 708.661,226.378L708.661,127.953Z" style="fill:#ed1c24;"/>
            <clipPath id="_clip1">
                <path d="M708.661,127.953C708.661,100.792 681.554,78.74 648.166,78.74L139.236,78.74C105.847,78.74 78.74,100.792 78.74,127.953L78.74,226.378C78.74,253.539 105.847,275.591 139.236,275.591L648.166,275.591C681.554,275.591 708.661,253.539 708.661,226.378L708.661,127.953Z"/>
            </clipPath>
            <g clip-path="url(#_clip1)">
                <g transform="matrix(0.304998,0,0,1.46053,35.2669,-81.5893)">
                    <path d="M708.661,105.493C708.661,90.728 638.097,78.74 551.181,78.74L236.22,78.74C149.305,78.74 78.74,90.728 78.74,105.493L78.74,248.838C78.74,263.603 149.305,275.591 236.22,275.591L551.181,275.591C638.097,275.591 708.661,263.603 708.661,248.838L708.661,105.493Z" style="fill:#fff;"/>
                </g>
                <g transform="matrix(1.64733,0,0,1.34009,-194.79,-101.486)">
                    <text x="170.734px" y="228.185px" style="font-family:'Arial-BoldMT', 'Arial', sans-serif;font-weight:700;font-size:66.667px;fill:#ed1c24;">R$</text>
                </g>
            </g>
        </g>
        <g id="descrição-baixo" serif:id="descrição baixo" transform="matrix(0.783711,0,0,1.25394,91.5261,-75.2016)">
            <text x="89.101px" y="402.596px" style="font-family:'Roboto-Bold', 'Roboto';font-weight:700;font-size:66.667px;fill:#231f20;">XXXXXXXXXXXXXX</text>
        </g>
        <g id="Descrição-Alto" serif:id="Descrição Alto" transform="matrix(0.783711,0,0,1.25394,91.5261,5.56642)">
            <text x="89.101px" y="402.596px" style="font-family:'Roboto-Bold', 'Roboto';font-weight:700;font-size:66.667px;fill:#231f20;">XXXXXXXXXXXXXX</text>
        </g>
        <g id="Preço-Grande" serif:id="Preço Grande" transform="matrix(3.35863,0,0,5.37381,-273.967,-901.588)">
            <text x="170.734px" y="228.185px" style="font-family:'Arial-BoldMT', 'Arial', sans-serif;font-weight:700;font-size:66.667px;fill:#fff;">X</text>
        </g>
        <g id="Preço-Pequeno" serif:id="Preço Pequeno" transform="matrix(1.5033,0,0,2.40528,196.653,-365.876)">
            <text x="170.734px" y="228.185px" style="font-family:'Arial-BoldMT', 'Arial', sans-serif;font-weight:700;font-size:66.667px;fill:#fff;">,XX</text>
        </g>
    </g>
</svg>
