<?xml version="1.0" encoding="UTF-8" standalone="no"?>
<!DOCTYPE svg PUBLIC "-//W3C//DTD SVG 1.1//EN" "http://www.w3.org/Graphics/SVG/1.1/DTD/svg11.dtd">
<svg width="100%" height="100%" viewBox="0 0 1260 552" version="1.1" xmlns="http://www.w3.org/2000/svg" xmlns:xlink="http://www.w3.org/1999/xlink" xml:space="preserve" xmlns:serif="http://www.serif.com/" style="fill-rule:evenodd;clip-rule:evenodd;stroke-linejoin:round;stroke-miterlimit:2;">
    <g transform="matrix(1,0,0,1,-2915.19,0)">
        <g id="Triplo" transform="matrix(0.999098,0,0,1,1459.63,0)">
            <rect x="1456.88" y="0" width="1260.98" height="551.181" style="fill:none;"/>
            <g transform="matrix(1.0009,0,0,1,1681.49,-4.38812)">
                <g transform="matrix(1.90084,0,0,1.492,-342.852,-67.9197)">
                    <path d="M708.661,127.953C708.661,100.792 691.353,78.74 670.034,78.74L117.368,78.74C96.049,78.74 78.74,100.792 78.74,127.953L78.74,226.378C78.74,253.539 96.049,275.591 117.368,275.591L670.034,275.591C691.353,275.591 708.661,253.539 708.661,226.378L708.661,127.953Z" style="fill:#ed1c24;"/>
                    <clipPath id="_clip1">
                        <path d="M708.661,127.953C708.661,100.792 691.353,78.74 670.034,78.74L117.368,78.74C96.049,78.74 78.74,100.792 78.74,127.953L78.74,226.378C78.74,253.539 96.049,275.591 117.368,275.591L670.034,275.591C691.353,275.591 708.661,253.539 708.661,226.378L708.661,127.953Z"/>
                    </clipPath>
                    <g clip-path="url(#_clip1)">
                        <g transform="matrix(0.194749,0,0,1.46053,50.9814,-81.5893)">
                            <path d="M708.661,105.493C708.661,90.728 638.097,78.74 551.181,78.74L236.22,78.74C149.305,78.74 78.74,90.728 78.74,105.493L78.74,248.838C78.74,263.603 149.305,275.591 236.22,275.591L551.181,275.591C638.097,275.591 708.661,263.603 708.661,248.838L708.661,105.493Z" style="fill:#fff;"/>
                        </g>
                        <g transform="matrix(1.05186,0,0,1.34009,-95.9156,-101.486)">
                            <text x="170.734px" y="228.185px" style="font-family:'Arial-BoldMT', 'Arial', sans-serif;font-weight:700;font-size:66.667px;fill:#ed1c24;">R$</text>
                        </g>
                    </g>
                </g>
                <g>
                    <g id="Preço-Grande" serif:id="Preço Grande" transform="matrix(5.37381,0,0,5.37381,-873.807,-901.588)">
                        <text x="170.734px" y="228.185px" style="font-family:'Arial-BoldMT', 'Arial', sans-serif;font-weight:700;font-size:66.667px;fill:#fff;">XXX</text>
                    </g>
                    <g id="Preço-Pequeno" serif:id="Preço Pequeno" transform="matrix(2.40528,0,0,2.40528,322.353,-365.876)">
                        <text x="170.734px" y="228.185px" style="font-family:'Arial-BoldMT', 'Arial', sans-serif;font-weight:700;font-size:66.667px;fill:#fff;">,XX</text>
                    </g>
                </g>
                <g>
                    <g id="descrição-baixo" serif:id="descrição baixo" transform="matrix(1.25394,0,0,1.25394,-89.7787,-75.2016)">
                        <text x="89.101px" y="402.596px" style="font-family:'Roboto-Bold', 'Roboto';font-weight:700;font-size:66.667px;fill:#231f20;">XXXXXXXXXXXXXX</text>
                    </g>
                    <g id="Descrição-Alto" serif:id="Descrição Alto" transform="matrix(1.25394,0,0,1.25394,-89.7787,5.56642)">
                        <text x="89.101px" y="402.596px" style="font-family:'Roboto-Bold', 'Roboto';font-weight:700;font-size:66.667px;fill:#231f20;">XXXXXXXXXXXXXX</text>
                    </g>
                </g>
            </g>
        </g>
    </g>
</svg>
